<svg width="150" height="33" viewBox="0 0 150 33" fill="none" xmlns="http://www.w3.org/2000/svg">
<path d="M7.32321 17.6744L7.0334 18.86H10.195L9.90519 17.6744C9.69442 16.8489 9.48365 15.9531 9.27287 14.9871C9.0621 14.021 8.85132 13.1077 8.64055 12.247H8.53516C8.35952 13.1077 8.16631 14.021 7.95553 14.9871C7.74476 15.9531 7.53399 16.8489 7.32321 17.6744ZM0.736533 26L5.95318 8.87463H11.4333L16.65 26H11.8549L11.0118 22.3642H6.21665L5.37356 26H0.736533ZM18.283 26V8.87463H22.8147V26H18.283Z" fill="#008981"/>
<path d="M26.6193 26V8.87463H31.6779C33.4168 8.87463 34.9449 9.16444 36.2622 9.74407C37.5971 10.3061 38.6334 11.2107 39.3711 12.4578C40.1088 13.7049 40.4777 15.3384 40.4777 17.3583C40.4777 19.3782 40.1088 21.0293 39.3711 22.3115C38.6334 23.5761 37.6235 24.507 36.3412 25.1042C35.059 25.7014 33.5924 26 31.9413 26H26.6193ZM31.1509 22.3642H31.4144C32.2399 22.3642 32.9864 22.2236 33.6539 21.9426C34.3213 21.6616 34.8483 21.161 35.2347 20.4408C35.6387 19.7207 35.8407 18.6932 35.8407 17.3583C35.8407 16.0234 35.6387 15.0134 35.2347 14.3284C34.8483 13.6258 34.3213 13.1516 33.6539 12.9057C32.9864 12.6422 32.2399 12.5105 31.4144 12.5105H31.1509V22.3642ZM43.1546 26V12.8266H47.6862V26H43.1546ZM45.4204 11.1931C44.6827 11.1931 44.0855 10.9911 43.6288 10.5872C43.1721 10.1656 42.9438 9.61234 42.9438 8.92732C42.9438 8.24231 43.1721 7.69781 43.6288 7.29383C44.0855 6.87228 44.6827 6.6615 45.4204 6.6615C46.1581 6.6615 46.7553 6.87228 47.2119 7.29383C47.6686 7.69781 47.897 8.24231 47.897 8.92732C47.897 9.61234 47.6686 10.1656 47.2119 10.5872C46.7553 10.9911 46.1581 11.1931 45.4204 11.1931ZM54.1697 26.3162C53.3442 26.3162 52.6329 26.1317 52.0357 25.7629C51.456 25.3765 51.0081 24.8759 50.692 24.2611C50.3758 23.6464 50.2177 22.9789 50.2177 22.2588C50.2177 20.8887 50.7798 19.8173 51.9039 19.0445C53.0281 18.2541 54.8548 17.7271 57.384 17.4637C57.2787 16.5503 56.6639 16.0936 55.5398 16.0936C55.0655 16.0936 54.5649 16.1902 54.038 16.3834C53.5111 16.5591 52.9051 16.8313 52.2201 17.2002L50.6393 14.2494C51.5702 13.6873 52.5099 13.257 53.4584 12.9584C54.4244 12.6598 55.4168 12.5105 56.4356 12.5105C58.1569 12.5105 59.5006 13.0023 60.4666 13.9859C61.4327 14.9519 61.9157 16.5152 61.9157 18.6756V26H58.2271L57.911 24.7354H57.8056C57.2787 25.2096 56.7166 25.596 56.1194 25.8946C55.5398 26.1756 54.8899 26.3162 54.1697 26.3162ZM55.7506 22.8384C56.1194 22.8384 56.4268 22.7594 56.6727 22.6013C56.9186 22.4256 57.1557 22.2061 57.384 21.9426V20.151C56.3126 20.3091 55.5661 20.5462 55.1446 20.8624C54.7406 21.1785 54.5386 21.5211 54.5386 21.8899C54.5386 22.5222 54.9426 22.8384 55.7506 22.8384ZM69.6651 31.4274C68.6639 31.4274 67.7418 31.3133 66.8987 31.0849C66.0556 30.8741 65.3794 30.5316 64.87 30.0574C64.3782 29.5832 64.1323 28.9508 64.1323 28.1604C64.1323 27.1241 64.7471 26.281 65.9766 25.6311V25.5258C65.6429 25.2799 65.353 24.9813 65.1071 24.63C64.8788 24.2611 64.7646 23.8044 64.7646 23.2599C64.7646 22.8033 64.8964 22.3554 65.1598 21.9163C65.4409 21.4771 65.8009 21.0995 66.24 20.7833V20.678C65.7658 20.3618 65.3443 19.9139 64.9754 19.3343C64.6241 18.7371 64.4485 18.0609 64.4485 17.3056C64.4485 16.2166 64.7119 15.3208 65.2389 14.6182C65.7834 13.8981 66.486 13.3711 67.3466 13.0374C68.2073 12.6861 69.1206 12.5105 70.0867 12.5105C70.8595 12.5105 71.5621 12.6159 72.1944 12.8266H77.0949V16.0936H75.1979C75.2506 16.2517 75.2945 16.4537 75.3297 16.6996C75.3824 16.9455 75.4087 17.2002 75.4087 17.4637C75.4087 18.5 75.1716 19.3431 74.6973 19.9929C74.2231 20.6253 73.582 21.0907 72.774 21.3893C71.9661 21.6879 71.0703 21.8372 70.0867 21.8372C69.6476 21.8372 69.1558 21.7757 68.6113 21.6528C68.4005 21.846 68.2951 22.1007 68.2951 22.4168C68.2951 22.6979 68.4356 22.8999 68.7166 23.0228C69.0152 23.1458 69.4895 23.2072 70.1394 23.2072H72.1154C73.7664 23.2072 75.0399 23.4795 75.9356 24.024C76.849 24.5509 77.3057 25.4204 77.3057 26.6323C77.3057 27.5808 76.9895 28.4151 76.3572 29.1353C75.7424 29.8554 74.8642 30.4175 73.7225 30.8215C72.5808 31.2254 71.2284 31.4274 69.6651 31.4274ZM70.0867 19.1499C70.5082 19.1499 70.8507 19.0006 71.1142 18.702C71.3777 18.4034 71.5094 17.9379 71.5094 17.3056C71.5094 16.6908 71.3777 16.2429 71.1142 15.9619C70.8507 15.6633 70.5082 15.514 70.0867 15.514C69.6651 15.514 69.3226 15.6633 69.0591 15.9619C68.7957 16.2429 68.6639 16.6908 68.6639 17.3056C68.6639 17.9379 68.7957 18.4034 69.0591 18.702C69.3226 19.0006 69.6651 19.1499 70.0867 19.1499ZM70.4028 28.6347C71.1405 28.6347 71.7553 28.5205 72.2471 28.2922C72.7389 28.0814 72.9848 27.7916 72.9848 27.4227C72.9848 27.0714 72.8267 26.8519 72.5106 26.7641C72.212 26.6762 71.7816 26.6323 71.2196 26.6323H70.1921C69.6651 26.6323 69.2611 26.6148 68.9801 26.5796C68.7166 26.5621 68.4883 26.5269 68.2951 26.4742C67.9789 26.7904 67.8209 27.1066 67.8209 27.4227C67.8209 27.8443 68.058 28.1516 68.5322 28.3449C69.024 28.5381 69.6476 28.6347 70.4028 28.6347ZM79.2527 26V12.8266H82.9412L83.2574 14.4074H83.3627C83.8897 13.8981 84.4869 13.459 85.1543 13.0901C85.8393 12.7037 86.6297 12.5105 87.5255 12.5105C88.9834 12.5105 90.0285 13.0023 90.6608 13.9859C91.3107 14.9519 91.6356 16.2517 91.6356 17.8852V26H87.104V18.4648C87.104 17.6217 86.9986 17.0597 86.7878 16.7786C86.577 16.4976 86.2433 16.3571 85.7866 16.3571C85.3651 16.3571 85.0138 16.4449 84.7328 16.6206C84.4517 16.7962 84.1356 17.0421 83.7843 17.3583V26H79.2527ZM100.436 26.3162C99.3121 26.3162 98.2495 26.0439 97.2483 25.4994C96.2647 24.9549 95.4567 24.1733 94.8244 23.1546C94.2096 22.1182 93.9023 20.8712 93.9023 19.4133C93.9023 17.9555 94.2096 16.7172 94.8244 15.6984C95.4567 14.6621 96.2647 13.8717 97.2483 13.3272C98.2495 12.7827 99.3121 12.5105 100.436 12.5105C101.56 12.5105 102.614 12.7827 103.598 13.3272C104.599 13.8717 105.407 14.6621 106.022 15.6984C106.654 16.7172 106.97 17.9555 106.97 19.4133C106.97 20.8712 106.654 22.1182 106.022 23.1546C105.407 24.1733 104.599 24.9549 103.598 25.4994C102.614 26.0439 101.56 26.3162 100.436 26.3162ZM100.436 22.6803C101.121 22.6803 101.604 22.3905 101.885 21.8109C102.184 21.2137 102.333 20.4145 102.333 19.4133C102.333 18.4121 102.184 17.6217 101.885 17.0421C101.604 16.4449 101.121 16.1463 100.436 16.1463C99.7512 16.1463 99.2594 16.4449 98.9608 17.0421C98.6798 17.6217 98.5393 18.4121 98.5393 19.4133C98.5393 20.4145 98.6798 21.2137 98.9608 21.8109C99.2594 22.3905 99.7512 22.6803 100.436 22.6803ZM113.233 26.3162C112.39 26.3162 111.494 26.1493 110.546 25.8156C109.615 25.4643 108.807 25.0164 108.122 24.4719L110.124 21.6791C111.319 22.5574 112.39 22.9965 113.339 22.9965C113.813 22.9965 114.146 22.935 114.34 22.812C114.55 22.6715 114.656 22.4695 114.656 22.2061C114.656 21.8548 114.401 21.5825 113.892 21.3893C113.382 21.1785 112.794 20.9414 112.127 20.678C111.617 20.4672 111.108 20.2037 110.598 19.8876C110.107 19.5538 109.694 19.1323 109.36 18.6229C109.026 18.1135 108.86 17.4988 108.86 16.7786C108.86 15.4789 109.343 14.4426 110.309 13.6697C111.275 12.8969 112.531 12.5105 114.076 12.5105C115.165 12.5105 116.096 12.6949 116.869 13.0638C117.659 13.415 118.344 13.8102 118.924 14.2494L116.922 16.9367C116.447 16.5854 115.982 16.3132 115.525 16.12C115.069 15.9268 114.638 15.8302 114.234 15.8302C113.461 15.8302 113.075 16.0761 113.075 16.5679C113.075 16.9016 113.312 17.1651 113.786 17.3583C114.278 17.5339 114.849 17.7447 115.499 17.9906C116.026 18.1838 116.544 18.4385 117.053 18.7547C117.58 19.0708 118.011 19.4836 118.344 19.9929C118.696 20.5023 118.871 21.1522 118.871 21.9426C118.871 23.1721 118.388 24.2084 117.422 25.0515C116.474 25.8946 115.077 26.3162 113.233 26.3162ZM126.001 26.3162C124.297 26.3162 123.059 25.8244 122.286 24.8407C121.531 23.8396 121.153 22.5398 121.153 20.9414V16.3571H119.415V12.9847L121.417 12.8266L121.944 9.40156H125.685V12.8266H128.689V16.3571H125.685V20.8624C125.685 21.5825 125.843 22.0831 126.159 22.3642C126.475 22.6452 126.844 22.7857 127.266 22.7857C127.477 22.7857 127.679 22.7681 127.872 22.733C128.083 22.6803 128.267 22.6276 128.425 22.5749L129.11 25.8419C128.776 25.9473 128.355 26.0527 127.845 26.1581C127.336 26.2635 126.721 26.3162 126.001 26.3162ZM131.123 26V12.8266H135.654V26H131.123ZM133.389 11.1931C132.651 11.1931 132.054 10.9911 131.597 10.5872C131.14 10.1656 130.912 9.61234 130.912 8.92732C130.912 8.24231 131.14 7.69781 131.597 7.29383C132.054 6.87228 132.651 6.6615 133.389 6.6615C134.126 6.6615 134.723 6.87228 135.18 7.29383C135.637 7.69781 135.865 8.24231 135.865 8.92732C135.865 9.61234 135.637 10.1656 135.18 10.5872C134.723 10.9911 134.126 11.1931 133.389 11.1931ZM144.667 26.3162C143.42 26.3162 142.296 26.0439 141.295 25.4994C140.294 24.9549 139.494 24.1733 138.897 23.1546C138.318 22.1182 138.028 20.8712 138.028 19.4133C138.028 17.9555 138.353 16.7172 139.003 15.6984C139.67 14.6621 140.54 13.8717 141.611 13.3272C142.682 12.7827 143.842 12.5105 145.089 12.5105C145.879 12.5105 146.591 12.6334 147.223 12.8793C147.873 13.1252 148.444 13.459 148.935 13.8805L146.828 16.7786C146.547 16.5327 146.292 16.3659 146.064 16.2781C145.835 16.1902 145.598 16.1463 145.352 16.1463C144.509 16.1463 143.85 16.4449 143.376 17.0421C142.902 17.6217 142.665 18.4121 142.665 19.4133C142.665 20.4145 142.911 21.2137 143.403 21.8109C143.894 22.3905 144.492 22.6803 145.194 22.6803C145.563 22.6803 145.923 22.6013 146.274 22.4432C146.643 22.2675 146.986 22.0656 147.302 21.8372L149.041 24.7881C148.391 25.3677 147.671 25.7717 146.88 26C146.09 26.2108 145.352 26.3162 144.667 26.3162Z" fill="#262626"/>
</svg>
