<svg width="180" height="37" viewBox="0 0 180 37" fill="none" xmlns="http://www.w3.org/2000/svg">
<path d="M8.03016 19.7436L7.70794 21.0618H11.223L10.9008 19.7436C10.6665 18.8258 10.4321 17.8299 10.1978 16.7558C9.96345 15.6818 9.72911 14.6663 9.49477 13.7094H9.3776C9.18232 14.6663 8.96751 15.6818 8.73317 16.7558C8.49883 17.8299 8.2645 18.8258 8.03016 19.7436ZM0.707077 29L6.50696 9.95999H12.5998L18.3996 29H13.0684L12.1311 24.9577H6.79988L5.86253 29H0.707077ZM20.2153 29V9.95999H25.2536V29H20.2153Z" fill="#008981"/>
<path d="M29.4836 29V9.95999H35.1077C37.041 9.95999 38.74 10.2822 40.2046 10.9266C41.6887 11.5515 42.8409 12.5572 43.6611 13.9437C44.4812 15.3303 44.8913 17.1464 44.8913 19.3921C44.8913 21.6379 44.4812 23.4735 43.6611 24.8991C42.8409 26.3051 41.718 27.3401 40.2924 28.0041C38.8669 28.668 37.2363 29 35.4006 29H29.4836ZM34.5219 24.9577H34.8148C35.7326 24.9577 36.5626 24.8014 37.3046 24.489C38.0467 24.1765 38.6325 23.62 39.0622 22.8193C39.5113 22.0187 39.7359 20.8763 39.7359 19.3921C39.7359 17.908 39.5113 16.7851 39.0622 16.0235C38.6325 15.2424 38.0467 14.7151 37.3046 14.4417C36.5626 14.1488 35.7326 14.0023 34.8148 14.0023H34.5219V24.9577ZM47.8675 29V14.3538H52.9058V29H47.8675ZM50.3866 12.5377C49.5664 12.5377 48.9025 12.3131 48.3947 11.864C47.887 11.3953 47.6331 10.7802 47.6331 10.0186C47.6331 9.25698 47.887 8.6516 48.3947 8.20245C48.9025 7.73377 49.5664 7.49944 50.3866 7.49944C51.2068 7.49944 51.8708 7.73377 52.3785 8.20245C52.8862 8.6516 53.1401 9.25698 53.1401 10.0186C53.1401 10.7802 52.8862 11.3953 52.3785 11.864C51.8708 12.3131 51.2068 12.5377 50.3866 12.5377ZM60.1142 29.3515C59.1964 29.3515 58.4055 29.1465 57.7415 28.7364C57.0971 28.3067 56.5991 27.7502 56.2476 27.0667C55.8961 26.3832 55.7203 25.6411 55.7203 24.8405C55.7203 23.3173 56.3452 22.1261 57.5951 21.2668C58.8449 20.3881 60.8758 19.8022 63.6879 19.5093C63.5707 18.4938 62.8872 17.9861 61.6374 17.9861C61.1101 17.9861 60.5536 18.0935 59.9677 18.3083C59.3819 18.5036 58.7082 18.8063 57.9466 19.2164L56.189 15.9356C57.224 15.3107 58.2688 14.8323 59.3233 14.5003C60.3974 14.1683 61.5007 14.0023 62.6333 14.0023C64.5471 14.0023 66.041 14.5491 67.1151 15.6427C68.1891 16.7168 68.7261 18.4548 68.7261 20.8567V29H64.6252L64.2737 27.594H64.1565C63.5707 28.1212 62.9458 28.5509 62.2818 28.8828C61.6374 29.1953 60.9148 29.3515 60.1142 29.3515ZM61.8717 25.4849C62.2818 25.4849 62.6236 25.397 62.897 25.2213C63.1704 25.026 63.434 24.7819 63.6879 24.489V22.4971C62.4966 22.6729 61.6667 22.9365 61.198 23.288C60.7489 23.6395 60.5243 24.0203 60.5243 24.4304C60.5243 25.1334 60.9734 25.4849 61.8717 25.4849ZM77.342 35.0342C76.2289 35.0342 75.2036 34.9073 74.2663 34.6534C73.3289 34.4191 72.5771 34.0383 72.0108 33.511C71.464 32.9838 71.1906 32.2807 71.1906 31.402C71.1906 30.2498 71.8741 29.3125 73.241 28.5899V28.4727C72.87 28.1993 72.5478 27.8674 72.2744 27.4768C72.0205 27.0667 71.8936 26.559 71.8936 25.9536C71.8936 25.4459 72.0401 24.9479 72.333 24.4597C72.6454 23.9715 73.0458 23.5516 73.534 23.2001V23.083C73.0067 22.7314 72.538 22.2335 72.1279 21.589C71.7374 20.9251 71.5421 20.1732 71.5421 19.3335C71.5421 18.1228 71.835 17.1268 72.4209 16.3457C73.0262 15.5451 73.8074 14.9592 74.7642 14.5882C75.7211 14.1976 76.7366 14.0023 77.8106 14.0023C78.6699 14.0023 79.451 14.1195 80.154 14.3538H85.6024V17.9861H83.4934C83.5519 18.1618 83.6008 18.3864 83.6398 18.6598C83.6984 18.9332 83.7277 19.2164 83.7277 19.5093C83.7277 20.6615 83.4641 21.5988 82.9368 22.3214C82.4095 23.0244 81.6968 23.5419 80.7985 23.8738C79.9002 24.2058 78.9042 24.3718 77.8106 24.3718C77.3224 24.3718 76.7756 24.3035 76.1703 24.1668C75.9359 24.3816 75.8188 24.6647 75.8188 25.0162C75.8188 25.3287 75.975 25.5533 76.2874 25.69C76.6194 25.8267 77.1467 25.895 77.8692 25.895H80.0661C81.9018 25.895 83.3176 26.1977 84.3135 26.8031C85.329 27.3889 85.8367 28.3556 85.8367 29.703C85.8367 30.7575 85.4852 31.6851 84.7822 32.4858C84.0987 33.2864 83.1223 33.9113 81.853 34.3605C80.5836 34.8096 79.08 35.0342 77.342 35.0342ZM77.8106 21.384C78.2793 21.384 78.6601 21.218 78.953 20.886C79.246 20.554 79.3924 20.0365 79.3924 19.3335C79.3924 18.65 79.246 18.1521 78.953 17.8396C78.6601 17.5076 78.2793 17.3417 77.8106 17.3417C77.342 17.3417 76.9612 17.5076 76.6682 17.8396C76.3753 18.1521 76.2289 18.65 76.2289 19.3335C76.2289 20.0365 76.3753 20.554 76.6682 20.886C76.9612 21.218 77.342 21.384 77.8106 21.384ZM78.1621 31.9292C78.9823 31.9292 79.6658 31.8023 80.2126 31.5484C80.7594 31.3141 81.0328 30.9919 81.0328 30.5818C81.0328 30.1912 80.857 29.9471 80.5055 29.8495C80.1736 29.7518 79.6951 29.703 79.0702 29.703H77.9278C77.342 29.703 76.8928 29.6835 76.5804 29.6444C76.2874 29.6249 76.0336 29.5858 75.8188 29.5273C75.4673 29.8788 75.2915 30.2303 75.2915 30.5818C75.2915 31.0505 75.5551 31.3922 76.0824 31.607C76.6292 31.8218 77.3224 31.9292 78.1621 31.9292ZM88.0014 29V14.3538H92.1023L92.4538 16.1114H92.571C93.1568 15.5451 93.8208 15.0569 94.5629 14.6468C95.3245 14.2171 96.2032 14.0023 97.1992 14.0023C98.82 14.0023 99.982 14.5491 100.685 15.6427C101.408 16.7168 101.769 18.1618 101.769 19.978V29H96.7305V20.6224C96.7305 19.685 96.6133 19.0601 96.379 18.7477C96.1447 18.4352 95.7736 18.279 95.2659 18.279C94.7972 18.279 94.4066 18.3767 94.0942 18.5719C93.7817 18.7672 93.4302 19.0406 93.0397 19.3921V29H88.0014ZM111.553 29.3515C110.304 29.3515 109.122 29.0488 108.009 28.4434C106.915 27.8381 106.017 26.9691 105.314 25.8364C104.631 24.6843 104.289 23.2978 104.289 21.6769C104.289 20.0561 104.631 18.6793 105.314 17.5467C106.017 16.3945 106.915 15.5158 108.009 14.9104C109.122 14.305 110.304 14.0023 111.553 14.0023C112.803 14.0023 113.975 14.305 115.068 14.9104C116.182 15.5158 117.08 16.3945 117.763 17.5467C118.466 18.6793 118.818 20.0561 118.818 21.6769C118.818 23.2978 118.466 24.6843 117.763 25.8364C117.08 26.9691 116.182 27.8381 115.068 28.4434C113.975 29.0488 112.803 29.3515 111.553 29.3515ZM111.553 25.3092C112.315 25.3092 112.852 24.987 113.164 24.3425C113.496 23.6786 113.662 22.79 113.662 21.6769C113.662 20.5638 113.496 19.685 113.164 19.0406C112.852 18.3767 112.315 18.0447 111.553 18.0447C110.792 18.0447 110.245 18.3767 109.913 19.0406C109.601 19.685 109.444 20.5638 109.444 21.6769C109.444 22.79 109.601 23.6786 109.913 24.3425C110.245 24.987 110.792 25.3092 111.553 25.3092ZM125.781 29.3515C124.844 29.3515 123.848 29.166 122.793 28.795C121.758 28.4044 120.86 27.9064 120.098 27.301L122.324 24.1961C123.652 25.1725 124.844 25.6607 125.898 25.6607C126.425 25.6607 126.796 25.5923 127.011 25.4556C127.246 25.2994 127.363 25.0748 127.363 24.7819C127.363 24.3913 127.08 24.0887 126.513 23.8738C125.947 23.6395 125.293 23.3759 124.551 23.083C123.984 22.8486 123.418 22.5557 122.852 22.2042C122.305 21.8331 121.846 21.3645 121.475 20.7982C121.104 20.2318 120.918 19.5483 120.918 18.7477C120.918 17.3026 121.455 16.1504 122.529 15.2912C123.604 14.432 125 14.0023 126.718 14.0023C127.929 14.0023 128.964 14.2074 129.823 14.6175C130.702 15.008 131.464 15.4474 132.108 15.9356L129.882 18.9234C129.355 18.5329 128.837 18.2302 128.329 18.0154C127.822 17.8006 127.343 17.6932 126.894 17.6932C126.035 17.6932 125.605 17.9666 125.605 18.5133C125.605 18.8844 125.869 19.1773 126.396 19.3921C126.943 19.5874 127.578 19.8217 128.3 20.0951C128.886 20.3099 129.462 20.5931 130.028 20.9446C130.614 21.2961 131.093 21.755 131.464 22.3214C131.854 22.8877 132.049 23.6102 132.049 24.489C132.049 25.856 131.512 27.0081 130.438 27.9455C129.384 28.8828 127.831 29.3515 125.781 29.3515ZM139.977 29.3515C138.082 29.3515 136.706 28.8047 135.846 27.7111C135.007 26.598 134.587 25.1529 134.587 23.3759V18.279H132.653V14.5296L134.88 14.3538L135.465 10.5458H139.625V14.3538H142.964V18.279H139.625V23.288C139.625 24.0887 139.801 24.6452 140.152 24.9577C140.504 25.2701 140.914 25.4263 141.383 25.4263C141.617 25.4263 141.841 25.4068 142.056 25.3678C142.291 25.3092 142.496 25.2506 142.671 25.192L143.433 28.8242C143.062 28.9414 142.593 29.0586 142.027 29.1758C141.461 29.2929 140.777 29.3515 139.977 29.3515ZM145.671 29V14.3538H150.709V29H145.671ZM148.19 12.5377C147.37 12.5377 146.706 12.3131 146.198 11.864C145.69 11.3953 145.436 10.7802 145.436 10.0186C145.436 9.25698 145.69 8.6516 146.198 8.20245C146.706 7.73377 147.37 7.49944 148.19 7.49944C149.01 7.49944 149.674 7.73377 150.182 8.20245C150.689 8.6516 150.943 9.25698 150.943 10.0186C150.943 10.7802 150.689 11.3953 150.182 11.864C149.674 12.3131 149.01 12.5377 148.19 12.5377ZM160.729 29.3515C159.343 29.3515 158.093 29.0488 156.98 28.4434C155.867 27.8381 154.978 26.9691 154.314 25.8364C153.67 24.6843 153.348 23.2978 153.348 21.6769C153.348 20.0561 153.709 18.6793 154.432 17.5467C155.174 16.3945 156.14 15.5158 157.332 14.9104C158.523 14.305 159.812 14.0023 161.198 14.0023C162.077 14.0023 162.868 14.139 163.571 14.4124C164.293 14.6858 164.928 15.0569 165.475 15.5255L163.131 18.7477C162.819 18.4743 162.536 18.2888 162.282 18.1911C162.028 18.0935 161.764 18.0447 161.491 18.0447C160.554 18.0447 159.821 18.3767 159.294 19.0406C158.767 19.685 158.503 20.5638 158.503 21.6769C158.503 22.79 158.777 23.6786 159.323 24.3425C159.87 24.987 160.534 25.3092 161.315 25.3092C161.725 25.3092 162.126 25.2213 162.516 25.0455C162.926 24.8503 163.307 24.6257 163.659 24.3718L165.592 27.6526C164.869 28.297 164.069 28.7461 163.19 29C162.311 29.2343 161.491 29.3515 160.729 29.3515ZM172.437 29.3515C171.5 29.3515 170.504 29.166 169.449 28.795C168.414 28.4044 167.516 27.9064 166.754 27.301L168.98 24.1961C170.308 25.1725 171.5 25.6607 172.554 25.6607C173.081 25.6607 173.452 25.5923 173.667 25.4556C173.902 25.2994 174.019 25.0748 174.019 24.7819C174.019 24.3913 173.736 24.0887 173.169 23.8738C172.603 23.6395 171.949 23.3759 171.207 23.083C170.64 22.8486 170.074 22.5557 169.508 22.2042C168.961 21.8331 168.502 21.3645 168.131 20.7982C167.76 20.2318 167.574 19.5483 167.574 18.7477C167.574 17.3026 168.111 16.1504 169.186 15.2912C170.26 14.432 171.656 14.0023 173.374 14.0023C174.585 14.0023 175.62 14.2074 176.479 14.6175C177.358 15.008 178.12 15.4474 178.764 15.9356L176.538 18.9234C176.011 18.5329 175.493 18.2302 174.985 18.0154C174.478 17.8006 173.999 17.6932 173.55 17.6932C172.691 17.6932 172.261 17.9666 172.261 18.5133C172.261 18.8844 172.525 19.1773 173.052 19.3921C173.599 19.5874 174.234 19.8217 174.956 20.0951C175.542 20.3099 176.118 20.5931 176.684 20.9446C177.27 21.2961 177.749 21.755 178.12 22.3214C178.51 22.8877 178.706 23.6102 178.706 24.489C178.706 25.856 178.168 27.0081 177.094 27.9455C176.04 28.8828 174.487 29.3515 172.437 29.3515Z" fill="#262626"/>
</svg>
