<svg width="24" height="25" viewBox="0 0 24 25" fill="none" xmlns="http://www.w3.org/2000/svg">
<path d="M6.29289 16.7929C5.90237 17.1834 5.90237 17.8166 6.29289 18.2071C6.68342 18.5976 7.31658 18.5976 7.70711 18.2071L6.29289 16.7929ZM17 7.5H18C18 6.94772 17.5523 6.5 17 6.5V7.5ZM9 6.5C8.44772 6.5 8 6.94772 8 7.5C8 8.05228 8.44772 8.5 9 8.5V6.5ZM16 15.5C16 16.0523 16.4477 16.5 17 16.5C17.5523 16.5 18 16.0523 18 15.5H16ZM7.70711 18.2071L17.7071 8.20711L16.2929 6.79289L6.29289 16.7929L7.70711 18.2071ZM9 8.5H17V6.5H9V8.5ZM16 7.5V15.5H18V7.5H16Z" fill="white"/>
</svg>
