<svg width="24" height="25" viewBox="0 0 24 25" fill="none" xmlns="http://www.w3.org/2000/svg">
<path d="M12 20.5L11.168 21.0548C11.3535 21.333 11.6657 21.5001 12.0001 21.5C12.3344 21.5 12.6466 21.3329 12.8321 21.0547L12 20.5ZM12.575 19.6375L11.743 19.0828L11.743 19.0828L12.575 19.6375ZM20.8911 6.04602L20.0001 6.50001V6.50001L20.8911 6.04602ZM20.4539 5.60899L20.9079 4.71799L20.4539 5.60899ZM20.4539 17.391L19.9999 16.5L20.4539 17.391ZM20.8911 16.954L20.0001 16.5L20.8911 16.954ZM13.7008 18.1824L14.3358 18.9549L13.7008 18.1824ZM14.7339 17.6295L15.0245 18.5863H15.0245L14.7339 17.6295ZM12.327 7.13806L11.436 6.68407L12.327 7.13806ZM13.6382 5.82698L13.1842 4.93597L13.6382 5.82698ZM11.4248 19.6375L10.5928 20.1922L10.5928 20.1922L11.4248 19.6375ZM3.10899 6.04602L4 6.50001L3.10899 6.04602ZM3.5459 5.60899L3.99989 6.5L3.5459 5.60899ZM3.5459 17.391L3.99989 16.5H3.99989L3.5459 17.391ZM3.10899 16.954L2.21799 17.408H2.21799L3.10899 16.954ZM10.2993 18.1824L10.9343 17.4098L10.2993 18.1824ZM9.26624 17.6295L8.97565 18.5863H8.97565L9.26624 17.6295ZM11.6729 7.13806L10.7818 7.59205L11.6729 7.13806ZM10.3622 5.82698L10.8162 4.93597V4.93597L10.3622 5.82698ZM11 10.3V20.5H13V10.3H11ZM12.8321 21.0547L13.4071 20.1921L11.743 19.0828L11.1679 19.9454L12.8321 21.0547ZM16.5688 18.5H19.4V16.5H16.5688V18.5ZM22 15.9V7.09998H20V15.9H22ZM19.3998 4.5H16.7998V6.5H19.3998V4.5ZM22 7.09998C22 6.83655 22.0008 6.57876 21.9831 6.36192C21.9645 6.13337 21.9205 5.86356 21.7821 5.59203L20.0001 6.50001C19.9708 6.4424 19.9812 6.41953 19.9897 6.52447C19.9992 6.64111 20 6.80335 20 7.09998H22ZM19.3998 6.5C19.6963 6.5 19.8586 6.50078 19.9752 6.5103C20.0802 6.51888 20.0574 6.52932 19.9999 6.5L20.9079 4.71799C20.6364 4.57968 20.3667 4.53562 20.1381 4.51694C19.9211 4.49922 19.6633 4.5 19.3998 4.5V6.5ZM21.7821 5.59203C21.5902 5.2153 21.2838 4.90953 20.9079 4.71799L19.9999 6.5L20.0001 6.50001L21.7821 5.59203ZM19.4 18.5C19.6635 18.5 19.9213 18.5008 20.1382 18.483C20.3668 18.4644 20.6365 18.4203 20.9079 18.282L19.9999 16.5C20.0574 16.4707 20.0801 16.4811 19.9753 16.4897C19.8587 16.4992 19.6965 16.5 19.4 16.5V18.5ZM20 15.9C20 16.1966 19.9993 16.3589 19.9897 16.4755C19.9812 16.5805 19.9707 16.5577 20.0001 16.5L21.7821 17.408C21.9205 17.1365 21.9645 16.8666 21.9831 16.6381C22.0008 16.4212 22 16.1634 22 15.9H20ZM20.9079 18.282C21.2837 18.0905 21.5901 17.7848 21.7821 17.408L20.0001 16.5L19.9999 16.5L20.9079 18.282ZM13.4071 20.1922C13.9625 19.3591 14.1334 19.1213 14.3358 18.9549L13.0659 17.4098C12.5799 17.8092 12.2296 18.3529 11.743 19.0828L13.4071 20.1922ZM16.5688 16.5C15.6919 16.5 15.0452 16.4898 14.4433 16.6726L15.0245 18.5863C15.2751 18.5102 15.5674 18.5 16.5688 18.5V16.5ZM14.3358 18.9549C14.539 18.7879 14.773 18.6627 15.0245 18.5863L14.4433 16.6726C13.9401 16.8254 13.4721 17.076 13.0659 17.4098L14.3358 18.9549ZM13 10.3C13 9.44347 13.0008 8.86117 13.0376 8.41108C13.0734 7.97266 13.1383 7.74845 13.218 7.59205L11.436 6.68407C11.1887 7.16941 11.0901 7.68612 11.0442 8.24822C10.9992 8.79864 11 9.47647 11 10.3H13ZM16.7998 4.5C15.9762 4.5 15.2985 4.49922 14.7481 4.54419C14.1861 4.59012 13.6695 4.6887 13.1842 4.93597L14.0922 6.71799C14.2486 6.63828 14.4727 6.57337 14.911 6.53755C15.361 6.50078 15.9432 6.5 16.7998 6.5V4.5ZM13.218 7.59205C13.4097 7.21581 13.7158 6.90978 14.0922 6.71799L13.1842 4.93597C12.4316 5.31942 11.8195 5.93134 11.436 6.68407L13.218 7.59205ZM12.832 19.9453L12.2568 19.0827L10.5928 20.1922L11.168 21.0548L12.832 19.9453ZM7.43122 16.5H4.6001V18.5H7.43122V16.5ZM4 15.9V7.09998H2V15.9H4ZM4.6001 6.5H7.2001V4.5H4.6001V6.5ZM4 7.09998C4 6.80345 4.00078 6.6412 4.0103 6.52463C4.01887 6.41974 4.0293 6.44251 4 6.50001L2.21799 5.59203C2.07969 5.86344 2.03562 6.13316 2.01695 6.36176C1.99922 6.57867 2 6.83645 2 7.09998H4ZM4.6001 4.5C4.33656 4.5 4.07874 4.49922 3.86179 4.51694C3.63322 4.53561 3.36339 4.57966 3.09191 4.71799L3.99989 6.5C3.94232 6.52933 3.91956 6.51889 4.0246 6.51031C4.14126 6.50078 4.30358 6.5 4.6001 6.5V4.5ZM4 6.50001L3.99989 6.5L3.09191 4.71799C2.71533 4.90987 2.4096 5.21596 2.21799 5.59203L4 6.50001ZM4.6001 16.5C4.30359 16.5 4.14127 16.4992 4.02462 16.4897C3.91959 16.4811 3.94233 16.4707 3.99989 16.5L3.09191 18.282C3.36337 18.4203 3.63319 18.4644 3.86177 18.483C4.07873 18.5008 4.33655 18.5 4.6001 18.5V16.5ZM2 15.9C2 16.1635 1.99922 16.4213 2.01694 16.6382C2.03562 16.8668 2.07968 17.1366 2.21799 17.408L4 16.5C4.02931 16.5576 4.01888 16.5803 4.0103 16.4754C4.00078 16.3588 4 16.1965 4 15.9H2ZM3.99989 16.5L4 16.5L2.21799 17.408C2.40966 17.7842 2.71543 18.0902 3.09191 18.282L3.99989 16.5ZM12.2569 19.0828C11.7705 18.3533 11.4203 17.8093 10.9343 17.4098L9.66436 18.9549C9.86667 19.1212 10.0371 19.3587 10.5928 20.1922L12.2569 19.0828ZM7.43122 18.5C8.43269 18.5 8.72502 18.5102 8.97565 18.5863L9.55682 16.6726C8.95493 16.4898 8.30817 16.5 7.43122 16.5V18.5ZM10.9343 17.4098C10.5281 17.076 10.06 16.8254 9.55682 16.6726L8.97565 18.5863C9.22718 18.6627 9.4612 18.7879 9.66436 18.9549L10.9343 17.4098ZM13 10.3C13 9.47642 13.0007 8.79859 12.9557 8.24813C12.9097 7.686 12.8111 7.16935 12.5639 6.68407L10.7818 7.59205C10.8616 7.74851 10.9265 7.97277 10.9624 8.41116C10.9992 8.86122 11 9.44352 11 10.3H13ZM7.2001 6.5C8.05668 6.5 8.639 6.50078 9.08911 6.53755C9.52757 6.57337 9.75179 6.6383 9.90818 6.71799L10.8162 4.93597C10.3308 4.68868 9.81408 4.59012 9.25197 4.54419C8.70152 4.49922 8.02368 4.5 7.2001 4.5V6.5ZM12.5639 6.68407C12.1805 5.9317 11.5691 5.31961 10.8162 4.93597L9.90818 6.71799C10.2842 6.90959 10.59 7.21545 10.7818 7.59205L12.5639 6.68407Z" fill="white"/>
</svg>
