<svg width="25" height="25" viewBox="0 0 25 25" fill="none" xmlns="http://www.w3.org/2000/svg">
<path d="M16.1926 6.79289C15.8021 6.40237 15.1689 6.40237 14.7784 6.79289C14.3879 7.18342 14.3879 7.81658 14.7784 8.20711L16.1926 6.79289ZM20.4855 12.5L21.1926 13.2071C21.5831 12.8166 21.5831 12.1834 21.1926 11.7929L20.4855 12.5ZM14.7784 16.7929C14.3879 17.1834 14.3879 17.8166 14.7784 18.2071C15.1689 18.5976 15.8021 18.5976 16.1926 18.2071L14.7784 16.7929ZM8.7784 18.2071C9.16892 18.5976 9.80209 18.5976 10.1926 18.2071C10.5831 17.8166 10.5831 17.1834 10.1926 16.7929L8.7784 18.2071ZM4.4855 12.5L3.7784 11.7929C3.38787 12.1834 3.38787 12.8166 3.7784 13.2071L4.4855 12.5ZM10.1926 8.20711C10.5831 7.81658 10.5831 7.18342 10.1926 6.79289C9.80209 6.40237 9.16892 6.40237 8.7784 6.79289L10.1926 8.20711ZM14.7784 8.20711L19.7784 13.2071L21.1926 11.7929L16.1926 6.79289L14.7784 8.20711ZM19.7784 11.7929L14.7784 16.7929L16.1926 18.2071L21.1926 13.2071L19.7784 11.7929ZM10.1926 16.7929L5.19261 11.7929L3.7784 13.2071L8.7784 18.2071L10.1926 16.7929ZM5.19261 13.2071L10.1926 8.20711L8.7784 6.79289L3.7784 11.7929L5.19261 13.2071Z" fill="white"/>
</svg>
