<svg width="64" height="64" viewBox="0 0 64 64" fill="none" xmlns="http://www.w3.org/2000/svg">
<rect width="64" height="64" rx="20" fill="#008981" fill-opacity="0.1"/>
<g clip-path="url(#clip0_23_1228)">
<path fill-rule="evenodd" clip-rule="evenodd" d="M38.4252 14.9265C36.9028 14.9265 35.6365 16.0974 35.5175 17.6151L35.4986 17.8555C35.4883 17.9872 35.384 18.2027 35.0871 18.3678C35.0048 18.4136 34.9233 18.4607 34.8427 18.5092C34.5524 18.6838 34.314 18.6665 34.1947 18.6095L33.9761 18.5052C32.6022 17.8494 30.955 18.3606 30.1938 19.6791L29.5165 20.8522C28.7553 22.1706 29.1362 23.8527 30.3911 24.7147L30.5914 24.8523C30.7006 24.9273 30.8345 25.1249 30.8288 25.4619C30.828 25.5094 30.8276 25.557 30.8276 25.6047C30.8276 25.6523 30.828 25.6999 30.8288 25.7474C30.8345 26.0844 30.7006 26.282 30.5914 26.357L30.3909 26.4947C29.136 27.3566 28.7552 29.0387 29.5164 30.3572L30.1937 31.5303C30.9549 32.8487 32.6021 33.36 33.976 32.7042L34.1947 32.5998C34.314 32.5429 34.5524 32.5256 34.8427 32.7001C34.9233 32.7486 35.0048 32.7958 35.0871 32.8415C35.384 33.0066 35.4883 33.2221 35.4986 33.3538L35.5175 33.5942C35.6365 35.1119 36.9028 36.2828 38.4252 36.2828H39.7799C41.3022 36.2828 42.5686 35.1119 42.6876 33.5942L42.7065 33.3537C42.7168 33.222 42.821 33.0065 43.1179 32.8414C43.2003 32.7957 43.2818 32.7485 43.3624 32.7001C43.6526 32.5255 43.8911 32.5428 44.0104 32.5997L44.2293 32.7042C45.6033 33.36 47.2504 32.8488 48.0116 31.5304L48.6889 30.3572C49.4501 29.0388 49.0693 27.3567 47.8144 26.4947L47.6135 26.3568C47.5043 26.2817 47.3704 26.0842 47.3761 25.7472C47.3769 25.6997 47.3773 25.6522 47.3773 25.6047C47.3773 25.5571 47.3769 25.5096 47.3761 25.4621C47.3704 25.1251 47.5043 24.9275 47.6135 24.8525L47.8143 24.7146C49.0691 23.8527 49.45 22.1706 48.6888 20.8522L48.0115 19.679C47.2503 18.3606 45.6031 17.8494 44.2292 18.5051L44.0104 18.6096C43.8911 18.6665 43.6526 18.6839 43.3624 18.5093C43.2818 18.4608 43.2003 18.4137 43.1179 18.3679C42.821 18.2028 42.7168 17.9873 42.7065 17.8556L42.6876 17.6151C42.5686 16.0974 41.3022 14.9265 39.7799 14.9265H38.4252ZM38.0098 17.8106C38.0268 17.5938 38.2077 17.4265 38.4252 17.4265H39.7799C39.9973 17.4265 40.1782 17.5938 40.1953 17.8106L40.2141 18.0511C40.3054 19.2145 41.0646 20.0868 41.9033 20.553C41.9607 20.5849 42.0176 20.6178 42.0738 20.6516C42.8975 21.147 44.0334 21.3688 45.0873 20.8658L45.3061 20.7613C45.5024 20.6676 45.7377 20.7407 45.8464 20.929L46.5237 22.1022C46.6325 22.2905 46.5781 22.5308 46.3988 22.654L46.1981 22.7918C45.2375 23.4516 44.8602 24.5438 44.8765 25.5045C44.8771 25.5378 44.8773 25.5712 44.8773 25.6047C44.8773 25.6381 44.8771 25.6715 44.8765 25.7048C44.8602 26.6655 45.2375 27.7577 46.1981 28.4175L46.3989 28.5554C46.5782 28.6786 46.6326 28.9189 46.5239 29.1072L45.8466 30.2804C45.7378 30.4687 45.5025 30.5417 45.3062 30.4481L45.0873 30.3436C44.0334 29.8406 42.8975 30.0623 42.0738 30.5577C42.0176 30.5915 41.9607 30.6244 41.9033 30.6564C41.0646 31.1226 40.3054 31.9948 40.2141 33.1583L40.1953 33.3987C40.1782 33.6155 39.9973 33.7828 39.7799 33.7828H38.4252C38.2077 33.7828 38.0268 33.6155 38.0098 33.3987L37.991 33.1584C37.8997 31.9949 37.1404 31.1226 36.3017 30.6564C36.2443 30.6245 36.1874 30.5916 36.1312 30.5578C35.3075 30.0624 34.1716 29.8407 33.1178 30.3436L32.8991 30.448C32.7028 30.5417 32.4675 30.4687 32.3588 30.2803L31.6814 29.1072C31.5727 28.9188 31.6271 28.6785 31.8064 28.5554L32.0068 28.4177C32.9674 27.7579 33.3447 26.6657 33.3284 25.705C33.3278 25.6716 33.3276 25.6382 33.3276 25.6047C33.3276 25.5711 33.3278 25.5377 33.3284 25.5043C33.3447 24.5436 32.9674 23.4514 32.0068 22.7916L31.8065 22.654C31.6272 22.5309 31.5728 22.2906 31.6816 22.1022L32.3589 20.9291C32.4676 20.7407 32.703 20.6677 32.8992 20.7614L33.1178 20.8657C34.1716 21.3687 35.3075 21.1469 36.1312 20.6516C36.1874 20.6177 36.2443 20.5848 36.3017 20.5529C37.1405 20.0867 37.8997 19.2145 37.991 18.051L38.0098 17.8106ZM37.4947 25.6046C37.4947 24.7166 38.2145 23.9968 39.1025 23.9968C39.9905 23.9968 40.7104 24.7166 40.7104 25.6046C40.7104 26.4926 39.9905 27.2125 39.1025 27.2125C38.2145 27.2125 37.4947 26.4926 37.4947 25.6046ZM39.1025 21.4968C36.8338 21.4968 34.9947 23.3359 34.9947 25.6046C34.9947 27.8733 36.8338 29.7125 39.1025 29.7125C41.3712 29.7125 43.2104 27.8733 43.2104 25.6046C43.2104 23.3359 41.3712 21.4968 39.1025 21.4968Z" fill="#008981"/>
<path fill-rule="evenodd" clip-rule="evenodd" d="M19.3574 38.3173C18.4001 38.3173 17.624 39.0934 17.624 40.0507C17.624 41.0081 18.4001 41.7841 19.3574 41.7841H20.5376C21.228 41.7841 21.7876 42.3438 21.7876 43.0341C21.7876 43.7245 21.228 44.2841 20.5376 44.2841H19.3574C17.0193 44.2841 15.124 42.3888 15.124 40.0507C15.124 37.7127 17.0193 35.8173 19.3574 35.8173H20.5376C21.228 35.8173 21.7876 36.377 21.7876 37.0673C21.7876 37.7577 21.228 38.3173 20.5376 38.3173H19.3574Z" fill="#008981"/>
<path fill-rule="evenodd" clip-rule="evenodd" d="M19.2876 36.2635C19.2876 34.844 20.4564 33.7404 21.8393 33.7404H32.253C33.636 33.7404 34.8048 34.844 34.8048 36.2635V43.4778C34.8048 46.5379 32.2761 48.9714 29.2157 48.9714H24.8767C21.8162 48.9714 19.2876 46.5379 19.2876 43.4778V36.2635ZM21.7876 36.2635C21.7876 36.2635 21.7876 36.2635 21.7876 36.2635V43.4778C21.7876 45.1051 23.1443 46.4714 24.8767 46.4714H29.2157C30.9481 46.4714 32.3048 45.1051 32.3048 43.4778V36.2635C32.3039 36.2622 32.3016 36.259 32.2995 36.2569C32.2951 36.2526 32.2891 36.2485 32.2819 36.2455C32.2755 36.2429 32.2664 36.2404 32.253 36.2404H21.8393C21.8259 36.2404 21.8169 36.2429 21.8104 36.2455C21.8032 36.2485 21.7973 36.2526 21.7929 36.2569C21.7907 36.259 21.7885 36.2622 21.7876 36.2635Z" fill="#008981"/>
<path fill-rule="evenodd" clip-rule="evenodd" d="M25.764 23.2062C26.2989 23.6427 26.3785 24.4301 25.942 24.965C25.5775 25.4115 25.4506 25.7063 25.4089 25.8734C25.374 26.0129 25.3885 26.0963 25.4209 26.1806C25.4654 26.2962 25.5591 26.4459 25.752 26.6746C25.8348 26.7727 25.921 26.8687 26.022 26.9811C26.0376 26.9984 26.0536 27.0162 26.07 27.0345C26.1854 27.163 26.3194 27.3134 26.4474 27.4729C26.8061 27.9198 27.2715 28.6197 27.2223 29.5644C27.1742 30.4877 26.653 31.3233 25.8622 32.1225C25.3767 32.6133 24.5852 32.6175 24.0945 32.1319C23.6037 31.6464 23.5995 30.8549 24.0851 30.3642C24.6952 29.7475 24.7241 29.4638 24.7256 29.4344C24.7257 29.4341 24.7256 29.4347 24.7256 29.4344C24.7266 29.4222 24.7337 29.3318 24.4978 29.0379C24.4172 28.9375 24.3244 28.8324 24.2096 28.7045C24.1954 28.6886 24.1807 28.6723 24.1656 28.6555C24.0665 28.5453 23.9513 28.4173 23.8411 28.2866C23.5888 27.9876 23.2819 27.5839 23.0873 27.0772C22.8805 26.5392 22.8175 25.9313 22.9835 25.2672C23.1426 24.6305 23.495 24.0093 24.0053 23.3842C24.4418 22.8493 25.2292 22.7697 25.764 23.2062Z" fill="#008981"/>
</g>
<defs>
<clipPath id="clip0_23_1228">
<rect width="40" height="40" fill="white" transform="translate(12 12)"/>
</clipPath>
</defs>
</svg>
