<svg width="236" height="222" viewBox="0 0 236 222" fill="none" xmlns="http://www.w3.org/2000/svg">
<path d="M121.958 101.699C119.643 100.363 115.891 100.363 113.576 101.699V123.96C115.891 122.623 119.643 122.623 121.958 123.96L178.115 156.382L121.958 188.804C119.643 190.14 115.891 190.14 113.576 188.804V205.129C115.891 206.466 119.643 206.466 121.958 205.129L193.202 163.997L193.202 142.832L121.958 101.699Z" fill="url(#paint0_linear_319_6922)"/>
<path d="M113.576 101.699L42.3322 142.832C41.1748 143.5 40.5962 144.376 40.5963 145.252V161.577C40.5965 162.452 41.175 163.329 42.3321 163.997L113.576 205.129V188.804L57.4191 156.382L113.576 123.96V101.699Z" fill="url(#paint1_linear_319_6922)"/>
<path d="M193.202 142.832C194.359 143.5 194.938 144.376 194.938 145.252V161.577C194.938 162.453 194.359 163.328 193.202 163.997L193.202 142.832Z" fill="url(#paint2_linear_319_6922)"/>
<rect width="91.9439" height="91.9439" rx="4.83915" transform="matrix(0.866025 0.5 -0.866025 0.5 117.768 99.2798)" fill="#EEF4FC"/>
<g clip-path="url(#clip0_319_6922)">
<path d="M137.945 141.704C138.573 141.279 138.884 140.756 138.884 140.235C138.884 139.654 138.498 139.075 137.737 138.636L134.55 136.796C133.104 135.961 130.79 135.909 129.236 136.675L128.16 137.206C126.999 137.779 125.378 137.889 123.917 137.633C123.511 137.561 123.101 137.498 122.689 137.443C121.201 137.245 119.891 136.681 119.382 135.85L118.909 135.078C118.227 133.965 116.177 133.343 114.202 133.648L109.849 134.322C108.111 134.59 106.946 135.499 106.946 136.504C106.946 136.641 106.967 136.779 107.012 136.918L107.271 137.725C107.315 137.861 107.336 137.997 107.336 138.131C107.336 138.856 106.732 139.55 105.792 140.057C105.637 140.141 105.484 140.226 105.333 140.313C105.182 140.401 105.033 140.49 104.888 140.579C103.847 141.223 102.348 141.594 100.848 141.433L99.4509 141.283C97.4409 141.068 95.482 141.781 94.9529 142.922L93.7864 145.435C93.6957 145.63 93.6522 145.827 93.6522 146.021C93.6521 146.958 94.6663 147.826 96.2632 148.152L97.6026 148.426C99.0424 148.72 100.019 149.476 100.362 150.335C100.457 150.573 100.567 150.809 100.69 151.043C100.839 151.325 100.916 151.618 100.916 151.908C100.916 152.483 100.611 153.047 99.9513 153.493L99.0309 154.114C98.4026 154.539 98.0918 155.061 98.0917 155.583C98.0917 156.163 98.4772 156.743 99.2389 157.182L102.426 159.022C103.871 159.857 106.186 159.909 107.74 159.142L108.817 158.611C109.978 158.038 111.599 157.928 113.06 158.184C113.465 158.256 113.875 158.319 114.286 158.374C115.775 158.572 117.084 159.136 117.594 159.967L118.068 160.74C118.75 161.853 120.799 162.476 122.774 162.17L127.127 161.497C128.865 161.228 130.03 160.32 130.031 159.315C130.031 159.178 130.009 159.039 129.964 158.9L129.705 158.093C129.661 157.957 129.64 157.821 129.64 157.686C129.64 156.962 130.244 156.267 131.184 155.76C131.339 155.677 131.492 155.591 131.643 155.504C131.794 155.417 131.942 155.328 132.087 155.239C133.128 154.596 134.627 154.225 136.126 154.385L137.524 154.535C139.534 154.75 141.493 154.037 142.022 152.897L143.189 150.384C143.279 150.188 143.323 149.991 143.323 149.798C143.323 148.861 142.309 147.993 140.712 147.667L139.374 147.393C137.934 147.099 136.958 146.343 136.614 145.484C136.519 145.246 136.41 145.009 136.286 144.774C136.138 144.492 136.06 144.199 136.06 143.91C136.06 143.334 136.366 142.771 137.025 142.325L137.945 141.704Z" fill="#418CC9"/>
<path d="M128.28 147.908C128.28 149.355 127.324 150.802 125.412 151.906C121.588 154.114 115.388 154.114 111.564 151.906C109.653 150.803 108.697 149.356 108.697 147.91C108.696 146.463 109.652 145.016 111.564 143.912C115.388 141.704 121.588 141.704 125.412 143.912C127.324 145.015 128.28 146.462 128.28 147.908Z" fill="#418CC9"/>
<path d="M114.202 127.555L109.849 128.229L109.849 134.321L114.202 133.648L114.202 127.555Z" fill="#418CC9"/>
<path d="M114.203 127.556C116.177 127.25 118.227 127.873 118.909 128.985L118.909 135.078C118.227 133.965 116.177 133.343 114.203 133.648L114.203 127.556Z" fill="#418CC9"/>
<path d="M106.946 130.411C106.946 129.406 108.111 128.498 109.849 128.229L109.849 134.322C108.111 134.59 106.946 135.499 106.946 136.504L106.946 130.411Z" fill="#418CC9"/>
<path d="M119.382 129.758L118.908 128.985L118.908 135.078L119.382 135.85L119.382 129.758Z" fill="#418CC9"/>
<path d="M119.382 129.758C119.891 130.589 121.201 131.153 122.689 131.351L122.689 137.444C121.201 137.246 119.891 136.682 119.382 135.85L119.382 129.758Z" fill="#418CC9"/>
<path d="M107.012 130.826C106.967 130.687 106.946 130.548 106.946 130.411L106.946 136.503C106.946 136.64 106.967 136.779 107.012 136.918L107.012 130.826Z" fill="#418CC9"/>
<path d="M129.236 130.583C130.79 129.816 133.104 129.869 134.55 130.703L134.55 136.796C133.104 135.961 130.79 135.909 129.236 136.675L129.236 130.583Z" fill="#418CC9"/>
<path d="M129.236 130.583L128.16 131.114L128.16 137.206L129.236 136.675L129.236 130.583Z" fill="#418CC9"/>
<path d="M107.012 130.826L107.271 131.632L107.271 137.725L107.012 136.918L107.012 130.826Z" fill="#418CC9"/>
<path d="M123.917 131.54C125.378 131.797 126.999 131.687 128.16 131.114L128.16 137.206C126.999 137.779 125.378 137.889 123.917 137.633L123.917 131.54Z" fill="#418CC9"/>
<path d="M123.917 131.54C123.511 131.469 123.101 131.406 122.689 131.351L122.689 137.443C123.101 137.498 123.511 137.561 123.917 137.633L123.917 131.54Z" fill="#418CC9"/>
<path d="M137.737 132.543L134.55 130.703L134.55 136.795L137.737 138.635L137.737 132.543Z" fill="#418CC9"/>
<path d="M107.336 132.039C107.336 131.904 107.315 131.768 107.271 131.632L107.271 137.725C107.315 137.861 107.336 137.997 107.336 138.131L107.336 132.039Z" fill="#418CC9"/>
<path d="M105.792 133.964C106.731 133.458 107.336 132.763 107.336 132.039L107.336 138.131C107.336 138.856 106.732 139.55 105.792 140.057L105.792 133.964Z" fill="#418CC9"/>
<path d="M138.884 134.142C138.884 133.562 138.498 132.983 137.737 132.543L137.737 138.635C138.498 139.075 138.884 139.654 138.884 140.235L138.884 134.142Z" fill="#418CC9"/>
<path d="M105.792 133.965C105.637 134.048 105.484 134.134 105.333 134.221L105.333 140.313C105.484 140.226 105.637 140.141 105.792 140.057L105.792 133.965Z" fill="#418CC9"/>
<path d="M105.333 134.221C105.182 134.308 105.033 134.397 104.888 134.487L104.888 140.579C105.033 140.489 105.182 140.401 105.333 140.313L105.333 134.221Z" fill="#418CC9"/>
<path d="M137.945 135.611C138.573 135.187 138.884 134.664 138.884 134.143L138.884 140.235C138.884 140.756 138.573 141.279 137.945 141.704L137.945 135.611Z" fill="#418CC9"/>
<path d="M100.848 135.341C102.348 135.501 103.847 135.13 104.888 134.487L104.888 140.579C103.847 141.223 102.348 141.594 100.848 141.433L100.848 135.341Z" fill="#418CC9"/>
<path d="M100.848 135.341L99.4507 135.191L99.4507 141.284L100.848 141.434L100.848 135.341Z" fill="#418CC9"/>
<path d="M137.025 136.232L137.945 135.611L137.945 141.704L137.025 142.325L137.025 136.232Z" fill="#418CC9"/>
<path d="M94.9527 136.829C95.4819 135.689 97.4407 134.975 99.4507 135.191L99.4507 141.283C97.4407 141.068 95.4819 141.781 94.9527 142.921L94.9527 136.829Z" fill="#418CC9"/>
<path d="M137.025 136.232C136.366 136.678 136.06 137.241 136.06 137.817L136.06 143.908C136.06 143.333 136.366 142.77 137.025 142.324L137.025 136.232Z" fill="#418CC9"/>
<path d="M125.412 137.819C121.588 135.611 115.388 135.611 111.564 137.819L111.564 143.911C115.388 141.704 121.588 141.704 125.412 143.911L125.412 137.819Z" fill="#418CC9"/>
<path d="M94.9527 136.829L93.7862 139.343L93.7862 145.435L94.9527 142.922L94.9527 136.829Z" fill="#418CC9"/>
<path d="M136.06 137.817C136.06 138.107 136.138 138.4 136.286 138.682L136.286 144.774C136.138 144.492 136.06 144.199 136.06 143.91L136.06 137.817Z" fill="#418CC9"/>
<path d="M136.615 139.391C136.519 139.153 136.41 138.917 136.286 138.682L136.286 144.774C136.41 145.009 136.519 145.246 136.615 145.484L136.615 139.391Z" fill="#418CC9"/>
<path d="M93.6524 139.929C93.6525 139.735 93.6959 139.538 93.7866 139.343L93.7866 145.435C93.6959 145.63 93.6525 145.827 93.6524 146.021L93.6524 139.929Z" fill="#418CC9"/>
<path d="M128.28 141.816C128.28 140.37 127.324 138.923 125.412 137.819L125.412 143.912C127.324 145.015 128.28 146.462 128.28 147.909L128.28 141.816Z" fill="#418CC9"/>
<path d="M111.564 137.819C109.652 138.923 108.696 140.37 108.697 141.817L108.697 147.908C108.697 146.462 109.653 145.015 111.564 143.912L111.564 137.819Z" fill="#418CC9"/>
<path d="M136.615 139.391C136.958 140.251 137.934 141.007 139.375 141.301L139.375 147.393C137.934 147.099 136.958 146.343 136.615 145.484L136.615 139.391Z" fill="#418CC9"/>
<path d="M96.2632 142.06C94.6666 141.734 93.6524 140.865 93.6522 139.929L93.6522 146.021C93.6521 146.958 94.6664 147.826 96.2632 148.152L96.2632 142.06Z" fill="#418CC9"/>
<path d="M140.712 141.574L139.374 141.301L139.374 147.393L140.712 147.667L140.712 141.574Z" fill="#418CC9"/>
<path d="M96.2631 142.06L97.6026 142.334L97.6026 148.426L96.2631 148.152L96.2631 142.06Z" fill="#418CC9"/>
<path d="M140.712 141.574C142.309 141.9 143.323 142.769 143.323 143.705L143.323 149.797C143.323 148.861 142.308 147.993 140.712 147.667L140.712 141.574Z" fill="#418CC9"/>
<path d="M100.362 144.242C100.019 143.383 99.0423 142.627 97.6025 142.333L97.6025 148.425C99.0423 148.719 100.019 149.475 100.362 150.335L100.362 144.242Z" fill="#418CC9"/>
<path d="M125.412 145.814C127.324 144.71 128.28 143.264 128.28 141.817L128.28 147.909C128.28 149.356 127.324 150.803 125.412 151.907L125.412 145.814Z" fill="#418CC9"/>
<path d="M108.696 141.817C108.697 143.264 109.653 144.71 111.564 145.814L111.564 151.906C109.653 150.803 108.697 149.356 108.696 147.91L108.696 141.817Z" fill="#418CC9"/>
<path d="M143.323 143.705C143.323 143.899 143.279 144.095 143.189 144.291L143.189 150.383C143.279 150.188 143.323 149.991 143.323 149.797L143.323 143.705Z" fill="#418CC9"/>
<path d="M100.362 144.242C100.457 144.48 100.567 144.716 100.69 144.95L100.69 151.043C100.567 150.808 100.457 150.572 100.362 150.335L100.362 144.242Z" fill="#418CC9"/>
<path d="M100.916 145.816C100.916 145.526 100.839 145.233 100.69 144.951L100.69 151.043C100.839 151.326 100.916 151.618 100.916 151.908L100.916 145.816Z" fill="#418CC9"/>
<path d="M142.022 146.804L143.189 144.291L143.189 150.383L142.022 152.897L142.022 146.804Z" fill="#418CC9"/>
<path d="M111.564 145.814C115.388 148.021 121.588 148.021 125.412 145.814L125.412 151.906C121.588 154.114 115.388 154.114 111.564 151.906L111.564 145.814Z" fill="#418CC9"/>
<path d="M99.9513 147.4C100.611 146.954 100.916 146.391 100.916 145.816L100.916 151.908C100.916 152.483 100.611 153.047 99.9513 153.492L99.9513 147.4Z" fill="#418CC9"/>
<path d="M142.022 146.805C141.493 147.945 139.534 148.658 137.524 148.443L137.524 154.535C139.534 154.751 141.493 154.037 142.022 152.897L142.022 146.805Z" fill="#418CC9"/>
<path d="M99.9513 147.4L99.0309 148.022L99.0309 154.114L99.9513 153.492L99.9513 147.4Z" fill="#418CC9"/>
<path d="M136.126 148.292L137.524 148.442L137.524 154.535L136.126 154.385L136.126 148.292Z" fill="#418CC9"/>
<path d="M136.126 148.293C134.627 148.132 133.128 148.504 132.087 149.147L132.087 155.239C133.128 154.596 134.627 154.225 136.126 154.386L136.126 148.293Z" fill="#418CC9"/>
<path d="M98.0917 149.49C98.0917 148.969 98.4025 148.446 99.0308 148.022L99.0308 154.114C98.4025 154.539 98.0917 155.061 98.0917 155.583L98.0917 149.49Z" fill="#418CC9"/>
<path d="M131.643 149.411C131.794 149.324 131.942 149.236 132.087 149.146L132.087 155.239C131.942 155.328 131.794 155.417 131.643 155.504L131.643 149.411Z" fill="#418CC9"/>
<path d="M131.184 149.668C131.339 149.584 131.492 149.498 131.643 149.411L131.643 155.504C131.492 155.591 131.339 155.676 131.184 155.76L131.184 149.668Z" fill="#418CC9"/>
<path d="M99.2389 151.09C98.4773 150.65 98.0918 150.071 98.0917 149.491L98.0917 155.583C98.0916 156.164 98.4771 156.743 99.2389 157.182L99.2389 151.09Z" fill="#418CC9"/>
<path d="M131.184 149.668C130.244 150.175 129.64 150.869 129.64 151.594L129.64 157.686C129.64 156.961 130.244 156.267 131.184 155.76L131.184 149.668Z" fill="#418CC9"/>
<path d="M129.64 151.594C129.64 151.728 129.661 151.864 129.705 152L129.705 158.093C129.661 157.957 129.64 157.821 129.64 157.686L129.64 151.594Z" fill="#418CC9"/>
<path d="M99.2389 151.09L102.426 152.93L102.426 159.022L99.2389 157.182L99.2389 151.09Z" fill="#418CC9"/>
<path d="M113.06 152.092C113.465 152.163 113.875 152.226 114.286 152.281L114.286 158.374C113.875 158.319 113.465 158.256 113.06 158.185L113.06 152.092Z" fill="#418CC9"/>
<path d="M113.059 152.092C111.599 151.836 109.977 151.946 108.817 152.518L108.817 158.611C109.977 158.038 111.599 157.928 113.059 158.184L113.059 152.092Z" fill="#418CC9"/>
<path d="M129.964 152.807L129.705 152L129.705 158.092L129.964 158.9L129.964 152.807Z" fill="#418CC9"/>
<path d="M107.74 153.05L108.817 152.518L108.817 158.611L107.74 159.142L107.74 153.05Z" fill="#418CC9"/>
<path d="M107.74 153.05C106.186 153.817 103.872 153.765 102.426 152.93L102.426 159.022C103.872 159.857 106.186 159.909 107.74 159.143L107.74 153.05Z" fill="#418CC9"/>
<path d="M129.964 152.808C130.009 152.947 130.031 153.086 130.031 153.223L130.031 159.315C130.031 159.178 130.009 159.039 129.964 158.9L129.964 152.808Z" fill="#418CC9"/>
<path d="M117.594 153.874C117.084 153.043 115.775 152.479 114.286 152.281L114.286 158.373C115.775 158.572 117.084 159.135 117.594 159.967L117.594 153.874Z" fill="#418CC9"/>
<path d="M117.594 153.874L118.068 154.648L118.068 160.74L117.594 159.967L117.594 153.874Z" fill="#418CC9"/>
<path d="M130.031 153.222C130.031 154.227 128.865 155.135 127.127 155.404L127.127 161.497C128.865 161.228 130.031 160.32 130.031 159.315L130.031 153.222Z" fill="#418CC9"/>
<path d="M122.774 156.078C120.799 156.383 118.75 155.761 118.068 154.648L118.068 160.74C118.75 161.853 120.799 162.476 122.774 162.17L122.774 156.078Z" fill="#418CC9"/>
<path d="M122.774 156.078L127.127 155.404L127.127 161.497L122.774 162.17L122.774 156.078Z" fill="#418CC9"/>
<path fill-rule="evenodd" clip-rule="evenodd" d="M137.945 135.611C139.273 134.714 139.182 133.378 137.737 132.543L134.55 130.703C133.104 129.868 130.79 129.816 129.236 130.583L128.16 131.114C126.999 131.686 125.378 131.797 123.917 131.54C123.511 131.469 123.101 131.406 122.689 131.351C121.201 131.153 119.891 130.589 119.382 129.757L118.908 128.985C118.227 127.873 116.177 127.25 114.202 127.555L109.849 128.229C107.874 128.534 106.639 129.665 107.012 130.826L107.271 131.632C107.549 132.498 106.906 133.363 105.792 133.965C105.637 134.048 105.484 134.134 105.333 134.221C105.182 134.308 105.033 134.397 104.888 134.487C103.847 135.13 102.348 135.501 100.849 135.34L99.4509 135.191C97.4409 134.975 95.4821 135.689 94.953 136.829L93.7865 139.342C93.2574 140.482 94.336 141.665 96.2632 142.059L97.6024 142.333C99.0423 142.627 100.019 143.383 100.362 144.242C100.457 144.48 100.567 144.716 100.69 144.95C101.134 145.794 100.943 146.73 99.9512 147.4L99.0307 148.022C97.7026 148.919 97.7932 150.255 99.2388 151.09L102.426 152.93C103.871 153.764 106.185 153.817 107.74 153.05L108.817 152.518C109.977 151.946 111.599 151.835 113.059 152.092C113.465 152.163 113.875 152.226 114.286 152.281C115.775 152.479 117.084 153.043 117.594 153.874L118.068 154.648C118.75 155.761 120.799 156.383 122.774 156.078L127.127 155.404C129.102 155.099 130.337 153.968 129.964 152.807L129.705 152C129.426 151.134 130.069 150.269 131.184 149.668C131.339 149.584 131.492 149.498 131.643 149.411C131.794 149.324 131.942 149.236 132.087 149.146C133.128 148.503 134.627 148.132 136.126 148.292L137.524 148.442C139.534 148.658 141.493 147.944 142.022 146.804L143.189 144.291C143.718 143.151 142.639 141.967 140.712 141.574L139.374 141.3C137.934 141.006 136.958 140.25 136.614 139.391C136.519 139.153 136.41 138.916 136.286 138.682C135.842 137.839 136.033 136.902 137.025 136.232L137.945 135.611Z" fill="#99C0E8"/>
<circle r="7.99482" transform="matrix(0.866025 0.5 -0.866025 0.5 118.488 141.817)" fill="#2D79B6"/>
</g>
<path d="M96.036 102.044C98.467 107.539 101.722 111.464 105.801 113.819L100.581 119.04C96.5017 116.685 93.2466 112.76 90.8156 107.264L96.036 102.044Z" fill="#008981"/>
<path d="M115.505 113.285C115.277 113.543 115.041 113.779 114.798 113.991L110.284 118.505C107.895 121.217 104.66 121.395 100.581 119.04L105.801 113.82C109.491 115.95 112.49 116.008 114.798 113.991L115.505 113.285Z" fill="#008981"/>
<path d="M105.801 107.397C104.565 106.683 103.453 105.494 102.464 103.828L97.2434 109.049C98.2323 110.714 99.3448 111.903 100.581 112.617L105.801 107.397Z" fill="#008981"/>
<path d="M109.201 107.718C108.212 108.241 107.079 108.134 105.801 107.397L100.581 112.617C101.858 113.355 102.991 113.462 103.98 112.938L109.201 107.718Z" fill="#008981"/>
<path d="M102.464 103.829C101.475 102.116 100.692 99.832 100.115 96.9773L94.8945 102.198C95.4714 105.052 96.2543 107.336 97.2431 109.049L102.464 103.829Z" fill="#008981"/>
<path d="M109.765 107.279C109.586 107.458 109.398 107.604 109.2 107.718L103.98 112.938C104.177 112.825 104.365 112.678 104.544 112.499L109.765 107.279Z" fill="#008981"/>
<path d="M92.4512 82.3469C92.4512 90.007 93.6461 96.5727 96.036 102.044L90.8155 107.265C88.4257 101.793 87.2308 95.2274 87.2308 87.5673L92.4512 82.3469Z" fill="#008981"/>
<path d="M111.487 103.543C111.058 105.314 110.484 106.56 109.765 107.279L104.545 112.498C105.264 111.779 105.838 110.534 106.267 108.763L111.487 103.543Z" fill="#008981"/>
<path d="M131.555 126.334C133.739 129.165 136.108 131.318 138.663 132.792L133.442 138.013C130.888 136.538 128.518 134.385 126.335 131.554L131.555 126.334Z" fill="#008981"/>
<path d="M126.302 116.021C127.62 120.065 129.372 123.503 131.555 126.334L126.335 131.554C124.151 128.723 122.4 125.286 121.081 121.242L126.302 116.021Z" fill="#008981"/>
<path d="M100.115 96.9772C99.5382 94.1226 99.2498 90.5542 99.2498 86.2722L94.0294 91.4926C94.0294 95.7746 94.3178 99.343 94.8946 102.198L100.115 96.9772Z" fill="#008981"/>
<path d="M138.663 132.792C140.929 134.101 142.989 134.672 144.843 134.505L139.623 139.725C137.769 139.892 135.708 139.321 133.442 138.013L138.663 132.792Z" fill="#008981"/>
<path d="M115.505 113.284C117.936 110.596 119.151 105.422 119.151 97.762L113.931 102.982C113.931 110.642 112.715 115.816 110.284 118.505L115.505 113.284Z" fill="#008981"/>
<path d="M138.539 126.441C136.644 125.347 135.037 123.515 133.718 120.946L128.498 126.166C129.816 128.735 131.423 130.567 133.319 131.661L138.539 126.441Z" fill="#008981"/>
<path d="M144.843 134.505C146.285 134.376 147.503 133.815 148.497 132.822L143.279 138.04C142.285 139.034 141.066 139.596 139.623 139.726L144.843 134.505Z" fill="#008981"/>
<path d="M112.353 93.8369C112.353 98.1189 112.064 101.354 111.487 103.543L106.267 108.763C106.844 106.575 107.132 103.339 107.132 99.0573L112.353 93.8369Z" fill="#008981"/>
<path d="M142.68 126.619C141.568 127.452 140.187 127.392 138.539 126.441L133.319 131.661C134.967 132.613 136.347 132.672 137.46 131.839L142.68 126.619Z" fill="#008981"/>
<path d="M124.386 102.355C124.386 107.446 125.025 112.001 126.302 116.021L121.081 121.242C119.804 117.222 119.165 112.666 119.165 107.575L124.386 102.355Z" fill="#008981"/>
<path d="M148.499 132.819C148.782 132.536 149.047 132.218 149.293 131.865L144.073 137.085C143.826 137.438 143.562 137.757 143.279 138.04L148.499 132.819Z" fill="#008981"/>
<path d="M133.718 120.946C132.4 118.377 131.555 114.963 131.184 110.705L125.964 115.925C126.335 120.183 127.179 123.597 128.498 126.166L133.718 120.946Z" fill="#008981"/>
<path d="M99.2498 86.272C99.2498 81.99 99.5382 78.7785 100.115 76.6375L94.8946 81.8579C94.3178 83.9989 94.0294 87.2104 94.0294 91.4924L99.2498 86.272Z" fill="#008981"/>
<path d="M96.036 67.0029C93.6461 69.5721 92.4512 74.6868 92.4512 82.3468L87.2308 87.5672C87.2308 79.9072 88.4257 74.7925 90.8156 72.2233L96.036 67.0029Z" fill="#008981"/>
<path d="M144.411 121.196C144.411 123.955 143.834 125.763 142.68 126.619L138.068 131.232C137.887 131.471 137.684 131.673 137.46 131.84L138.068 131.232C138.816 130.244 139.19 128.639 139.19 126.416L144.411 121.196Z" fill="#008981"/>
<path d="M131.184 110.704C131.307 110.565 131.431 110.433 131.555 110.309L126.338 115.526C126.213 115.651 126.088 115.784 125.964 115.925L131.184 110.704Z" fill="#008981"/>
<path d="M149.293 131.865C150.447 130.295 151.024 128.011 151.024 125.014L145.804 130.234C145.804 133.231 145.227 135.515 144.073 137.085L149.293 131.865Z" fill="#008981"/>
<path d="M111.487 83.2031C112.064 86.0102 112.353 89.5548 112.353 93.8368L107.132 99.0572C107.132 94.7752 106.844 91.2306 106.267 88.4235L111.487 83.2031Z" fill="#008981"/>
<path d="M131.558 110.306C132.559 109.305 133.609 108.784 134.707 108.742L129.487 113.962C128.388 114.005 127.339 114.526 126.338 115.526L131.558 110.306Z" fill="#008981"/>
<path d="M142.742 114.237C143.854 116.211 144.411 118.531 144.411 121.195L139.19 126.415C139.19 123.751 138.634 121.432 137.521 119.457L142.742 114.237Z" fill="#008981"/>
<path d="M100.115 76.6377C100.539 75.062 101.076 73.9502 101.723 73.3022L96.5038 78.5217C95.8557 79.1695 95.3193 80.2817 94.8945 81.8581L100.115 76.6377Z" fill="#008981"/>
<path d="M134.707 108.742C135.943 108.646 137.118 108.92 138.23 109.562L133.01 114.783C131.897 114.14 130.723 113.867 129.487 113.962L134.707 108.742Z" fill="#008981"/>
<path d="M138.23 109.562C140.167 110.681 141.671 112.239 142.742 114.237L137.522 119.457C136.45 117.459 134.946 115.901 133.01 114.783L138.23 109.562Z" fill="#008981"/>
<path d="M101.724 73.3013C101.956 73.0693 102.203 72.8969 102.464 72.7839L97.2431 78.0043C96.9823 78.1173 96.7359 78.2897 96.5038 78.5217L101.724 73.3013Z" fill="#008981"/>
<path d="M135.078 103.175C133.512 103.223 132.153 103.746 130.999 104.745L125.779 109.966C126.932 108.967 128.292 108.443 129.858 108.396L135.078 103.175Z" fill="#008981"/>
<path d="M119.151 97.7622C119.151 90.1022 117.936 83.5959 115.505 78.2434L110.284 83.4638C112.715 88.8163 113.931 95.3226 113.931 102.983L119.151 97.7622Z" fill="#008981"/>
<path d="M126.549 89.3303C125.107 92.1136 124.386 96.4551 124.386 102.355L119.165 107.575C119.165 101.676 119.887 97.334 121.329 94.5507L126.549 89.3303Z" fill="#008981"/>
<path d="M109.2 76.6736C110.189 78.2437 110.952 80.4203 111.487 83.2036L106.267 88.424C105.731 85.6407 104.969 83.4641 103.98 81.894L109.2 76.6736Z" fill="#008981"/>
<path d="M151.024 125.013C151.024 120.255 149.953 116.116 147.81 112.595L142.59 117.816C144.732 121.337 145.803 125.476 145.803 130.234L151.024 125.013Z" fill="#008981"/>
<path d="M102.464 72.784C103.453 72.3082 104.565 72.4272 105.801 73.1408L100.581 78.3612C99.3448 77.6476 98.2323 77.5286 97.2434 78.0044L102.464 72.784Z" fill="#008981"/>
<path d="M130.999 104.745C131.123 100.63 131.596 97.5967 132.421 95.646L127.2 100.866C126.376 102.817 125.902 105.85 125.779 109.966L130.999 104.745Z" fill="#008981"/>
<path d="M105.801 73.1409C107.079 73.8783 108.212 75.0559 109.201 76.6735L103.98 81.8939C102.991 80.2763 101.858 79.0987 100.581 78.3613L105.801 73.1409Z" fill="#008981"/>
<path d="M139.528 104.317C138.127 103.508 136.644 103.128 135.078 103.175L129.858 108.396C131.424 108.348 132.907 108.729 134.308 109.537L139.528 104.317Z" fill="#008981"/>
<path d="M96.036 67.0035C98.467 64.458 101.722 64.3629 105.801 66.718L100.581 71.9384C96.6442 69.6656 93.4751 69.6748 91.0734 71.966L90.8156 72.2239C90.9005 72.1349 90.9865 72.049 91.0734 71.966L96.036 67.0035Z" fill="#008981"/>
<path d="M147.81 112.595C145.709 109.051 142.948 106.291 139.528 104.317L134.308 109.537C137.728 111.512 140.488 114.271 142.59 117.816L147.81 112.595Z" fill="#008981"/>
<path d="M115.505 78.2433C113.115 72.9145 109.88 69.0726 105.801 66.7175L100.581 71.9379C104.66 74.293 107.895 78.135 110.284 83.4637L115.505 78.2433Z" fill="#008981"/>
<path d="M132.421 95.6459C132.855 94.6541 133.352 93.8784 133.911 93.3188L128.693 98.5375C128.133 99.0973 127.635 99.8735 127.2 100.866L132.421 95.6459Z" fill="#008981"/>
<path d="M128.531 86.5552C127.801 87.2851 127.141 88.2101 126.549 89.3301L121.328 94.5505C121.92 93.4305 122.581 92.5055 123.311 91.7756L128.531 86.5552Z" fill="#008981"/>
<path d="M133.913 93.3173C134.467 92.7637 135.082 92.4219 135.758 92.2917L130.537 97.5122C129.861 97.6423 129.246 97.9841 128.693 98.5377L133.913 93.3173Z" fill="#008981"/>
<path d="M132.297 84.5845C130.885 84.7989 129.63 85.4559 128.531 86.5555L123.314 91.7729C124.412 90.6751 125.666 90.0191 127.077 89.8049L132.297 84.5845Z" fill="#008981"/>
<path d="M135.758 92.2917C137.118 92.03 138.622 92.375 140.27 93.3265L135.049 98.5469C133.401 97.5954 131.897 97.2504 130.538 97.5121L135.758 92.2917Z" fill="#008981"/>
<path d="M143.731 96.3242C144.885 97.6088 145.812 98.9529 146.512 100.356L141.292 105.577C140.591 104.173 139.664 102.829 138.51 101.545L143.731 96.3242Z" fill="#008981"/>
<path d="M140.27 93.3269C141.465 94.0168 142.618 95.0159 143.731 96.3243L138.511 101.545C137.398 100.236 136.244 99.2372 135.049 98.5473L140.27 93.3269Z" fill="#008981"/>
<path d="M146.512 100.356L150.344 97.5728L145.124 102.793L141.292 105.576L146.512 100.356Z" fill="#008981"/>
<path d="M139.837 86.3687C137.159 84.8224 134.645 84.2277 132.297 84.5845L127.076 89.8049C129.425 89.4481 131.938 90.0428 134.617 91.5891L139.837 86.3687Z" fill="#008981"/>
<path d="M150.344 97.5731C149.191 95.4797 147.748 93.4338 146.018 91.4355L140.797 96.656C142.528 98.6542 143.97 100.7 145.124 102.793L150.344 97.5731Z" fill="#008981"/>
<path d="M146.018 91.4352C144.287 89.4369 142.227 87.7479 139.837 86.3682L134.617 91.5886C137.007 92.9683 139.067 94.6573 140.797 96.6556L146.018 91.4352Z" fill="#008981"/>
<path d="M100.594 118.902C96.5145 116.547 93.2594 112.622 90.8284 107.127C88.4386 101.655 87.2437 95.0895 87.2437 87.4295C87.2437 79.7695 88.4386 74.6548 90.8284 72.0856C93.2594 69.5402 96.5145 69.4451 100.594 71.8002C104.673 74.1553 107.907 77.9972 110.297 83.3259C112.728 88.6784 113.944 95.1847 113.944 102.845C113.944 110.505 112.728 115.679 110.297 118.367C107.907 121.079 104.673 121.257 100.594 118.902ZM100.594 112.479C101.871 113.217 103.004 113.324 103.993 112.8C104.982 112.229 105.744 110.838 106.28 108.625C106.857 106.437 107.145 103.202 107.145 98.9195C107.145 94.6375 106.857 91.093 106.28 88.2859C105.744 85.5026 104.982 83.3259 103.993 81.7558C103.004 80.1382 101.871 78.9606 100.594 78.2232C99.3576 77.5095 98.2451 77.3906 97.2562 77.8663C96.2673 78.2945 95.4844 79.5791 94.9076 81.7201C94.3307 83.8611 94.0423 87.0727 94.0423 91.3547C94.0423 95.6367 94.3307 99.205 94.9076 102.06C95.4844 104.914 96.2673 107.198 97.2562 108.911C98.2451 110.576 99.3576 111.766 100.594 112.479ZM133.023 114.645C131.91 114.003 130.736 113.729 129.5 113.824C128.264 113.872 127.089 114.526 125.977 115.787C126.348 120.045 127.192 123.459 128.511 126.028C129.829 128.597 131.436 130.429 133.332 131.523C134.98 132.475 136.36 132.534 137.473 131.702C138.626 130.845 139.203 129.037 139.203 126.278C139.203 123.613 138.647 121.294 137.535 119.32C136.463 117.321 134.959 115.763 133.023 114.645ZM133.455 137.875C130.901 136.4 128.532 134.247 126.348 131.416C124.164 128.585 122.413 125.148 121.094 121.104C119.817 117.083 119.178 112.528 119.178 107.437C119.178 101.537 119.899 97.1959 121.341 94.4126C122.825 91.6055 124.741 90.0235 127.089 89.6667C129.438 89.3098 131.951 89.9046 134.63 91.4508C137.019 92.8306 139.08 94.5196 140.81 96.5179C142.541 98.5161 143.983 100.562 145.137 102.655L141.305 105.439C140.604 104.035 139.677 102.691 138.523 101.407C137.411 100.098 136.257 99.099 135.062 98.4091C133.414 97.4575 131.91 97.1126 130.55 97.3743C129.191 97.636 128.078 98.754 127.213 100.729C126.389 102.679 125.915 105.712 125.791 109.828C126.945 108.829 128.305 108.305 129.871 108.258C131.436 108.21 132.92 108.591 134.321 109.4C137.741 111.374 140.501 114.134 142.603 117.678C144.745 121.199 145.816 125.338 145.816 130.096C145.816 133.093 145.24 135.377 144.086 136.947C142.973 138.541 141.49 139.421 139.636 139.588C137.782 139.754 135.722 139.183 133.455 137.875Z" fill="#85D4D0"/>
<g filter="url(#filter0_i_319_6922)">
<path d="M42.2135 59.6804C41.135 60.3031 40.5959 61.1192 40.596 61.9353L40.596 145.817C40.5961 145.001 41.1353 144.185 42.2135 143.563V59.6804Z" fill="white" fill-opacity="0.25"/>
</g>
<path d="M41.0502 61.9353V61.9352C41.0502 61.5003 41.2599 61.0158 41.7593 60.5625V143.308C41.4929 143.48 41.2556 143.667 41.0502 143.866V61.9353Z" stroke="white" stroke-width="0.90843"/>
<g filter="url(#filter1_i_319_6922)">
<path d="M40.596 61.4167C40.5961 62.2326 41.1353 63.0485 42.2135 63.671V147.554C41.1353 146.931 40.5961 146.115 40.596 145.299V61.4167Z" fill="white" fill-opacity="0.25"/>
</g>
<path d="M41.7593 146.672C41.2601 146.218 41.0503 145.734 41.0502 145.299V63.3677C41.2556 63.5674 41.4929 63.7543 41.7593 63.9259V146.672Z" stroke="white" stroke-width="0.90843"/>
<g filter="url(#filter2_i_319_6922)">
<path d="M193.183 64.2807C194.262 63.6616 194.801 62.8502 194.801 62.0388L194.934 145.475C194.934 146.287 194.262 147.062 193.183 147.681V64.2807Z" fill="white" fill-opacity="0.25"/>
</g>
<path d="M194.35 63.978L194.48 145.475C194.48 145.475 194.48 145.475 194.48 145.475C194.48 145.89 194.212 146.364 193.637 146.827V64.5363C193.905 64.3648 194.143 64.1779 194.35 63.978Z" stroke="white" stroke-width="0.90843"/>
<g filter="url(#filter3_i_319_6922)">
<path d="M42.2003 63.7131L113.969 105.008V188.891L42.2003 147.596V63.7131Z" fill="white" fill-opacity="0.25"/>
</g>
<path d="M42.6545 147.333V64.4985L113.515 105.271V188.105L42.6545 147.333Z" stroke="white" stroke-width="0.90843"/>
<g filter="url(#filter4_i_319_6922)">
<path d="M121.779 105.52L193.324 64.1794V147.597L121.779 188.891V105.52Z" fill="white" fill-opacity="0.25"/>
</g>
<path d="M122.233 188.104V105.782L192.87 64.9665V147.335L122.233 188.104Z" stroke="white" stroke-width="0.90843"/>
<g filter="url(#filter5_i_319_6922)">
<path d="M113.969 105.006C116.126 106.251 119.622 106.251 121.779 105.006V188.888C119.622 190.133 116.126 190.133 113.969 188.888V105.006Z" fill="white" fill-opacity="0.25"/>
</g>
<path d="M114.423 188.618V105.738C115.461 106.18 116.676 106.394 117.874 106.394C119.072 106.394 120.287 106.18 121.325 105.738V188.618C120.361 189.111 119.128 189.368 117.874 189.368C116.62 189.368 115.387 189.111 114.423 188.618Z" stroke="white" stroke-width="0.90843"/>
<g filter="url(#filter6_i_319_6922)">
<rect width="93.9841" height="92.8411" rx="7.86205" transform="matrix(0.866025 0.5 -0.866025 0.5 117.403 15)" fill="white" fill-opacity="0.25"/>
</g>
<rect x="-2.70733e-08" y="0.454215" width="93.0756" height="91.9327" rx="7.40783" transform="matrix(0.866025 0.5 -0.866025 0.5 117.796 15.2271)" stroke="white" stroke-width="0.90843"/>
<defs>
<filter id="filter0_i_319_6922" x="40.596" y="59.6804" width="1.61749" height="86.1367" filterUnits="userSpaceOnUse" color-interpolation-filters="sRGB">
<feFlood flood-opacity="0" result="BackgroundImageFix"/>
<feBlend mode="normal" in="SourceGraphic" in2="BackgroundImageFix" result="shape"/>
<feColorMatrix in="SourceAlpha" type="matrix" values="0 0 0 0 0 0 0 0 0 0 0 0 0 0 0 0 0 0 127 0" result="hardAlpha"/>
<feOffset/>
<feGaussianBlur stdDeviation="9.0843"/>
<feComposite in2="hardAlpha" operator="arithmetic" k2="-1" k3="1"/>
<feColorMatrix type="matrix" values="0 0 0 0 1 0 0 0 0 1 0 0 0 0 1 0 0 0 1 0"/>
<feBlend mode="normal" in2="shape" result="effect1_innerShadow_319_6922"/>
</filter>
<filter id="filter1_i_319_6922" x="40.596" y="61.4167" width="1.61749" height="86.1367" filterUnits="userSpaceOnUse" color-interpolation-filters="sRGB">
<feFlood flood-opacity="0" result="BackgroundImageFix"/>
<feBlend mode="normal" in="SourceGraphic" in2="BackgroundImageFix" result="shape"/>
<feColorMatrix in="SourceAlpha" type="matrix" values="0 0 0 0 0 0 0 0 0 0 0 0 0 0 0 0 0 0 127 0" result="hardAlpha"/>
<feOffset/>
<feGaussianBlur stdDeviation="9.0843"/>
<feComposite in2="hardAlpha" operator="arithmetic" k2="-1" k3="1"/>
<feColorMatrix type="matrix" values="0 0 0 0 1 0 0 0 0 1 0 0 0 0 1 0 0 0 1 0"/>
<feBlend mode="normal" in2="shape" result="effect1_innerShadow_319_6922"/>
</filter>
<filter id="filter2_i_319_6922" x="193.183" y="62.0388" width="1.75061" height="85.6421" filterUnits="userSpaceOnUse" color-interpolation-filters="sRGB">
<feFlood flood-opacity="0" result="BackgroundImageFix"/>
<feBlend mode="normal" in="SourceGraphic" in2="BackgroundImageFix" result="shape"/>
<feColorMatrix in="SourceAlpha" type="matrix" values="0 0 0 0 0 0 0 0 0 0 0 0 0 0 0 0 0 0 127 0" result="hardAlpha"/>
<feOffset/>
<feGaussianBlur stdDeviation="9.0843"/>
<feComposite in2="hardAlpha" operator="arithmetic" k2="-1" k3="1"/>
<feColorMatrix type="matrix" values="0 0 0 0 1 0 0 0 0 1 0 0 0 0 1 0 0 0 1 0"/>
<feBlend mode="normal" in2="shape" result="effect1_innerShadow_319_6922"/>
</filter>
<filter id="filter3_i_319_6922" x="42.2003" y="63.7131" width="71.7687" height="125.178" filterUnits="userSpaceOnUse" color-interpolation-filters="sRGB">
<feFlood flood-opacity="0" result="BackgroundImageFix"/>
<feBlend mode="normal" in="SourceGraphic" in2="BackgroundImageFix" result="shape"/>
<feColorMatrix in="SourceAlpha" type="matrix" values="0 0 0 0 0 0 0 0 0 0 0 0 0 0 0 0 0 0 127 0" result="hardAlpha"/>
<feOffset/>
<feGaussianBlur stdDeviation="9.0843"/>
<feComposite in2="hardAlpha" operator="arithmetic" k2="-1" k3="1"/>
<feColorMatrix type="matrix" values="0 0 0 0 1 0 0 0 0 1 0 0 0 0 1 0 0 0 1 0"/>
<feBlend mode="normal" in2="shape" result="effect1_innerShadow_319_6922"/>
</filter>
<filter id="filter4_i_319_6922" x="121.779" y="64.1794" width="71.5455" height="124.711" filterUnits="userSpaceOnUse" color-interpolation-filters="sRGB">
<feFlood flood-opacity="0" result="BackgroundImageFix"/>
<feBlend mode="normal" in="SourceGraphic" in2="BackgroundImageFix" result="shape"/>
<feColorMatrix in="SourceAlpha" type="matrix" values="0 0 0 0 0 0 0 0 0 0 0 0 0 0 0 0 0 0 127 0" result="hardAlpha"/>
<feOffset/>
<feGaussianBlur stdDeviation="9.0843"/>
<feComposite in2="hardAlpha" operator="arithmetic" k2="-1" k3="1"/>
<feColorMatrix type="matrix" values="0 0 0 0 1 0 0 0 0 1 0 0 0 0 1 0 0 0 1 0"/>
<feBlend mode="normal" in2="shape" result="effect1_innerShadow_319_6922"/>
</filter>
<filter id="filter5_i_319_6922" x="113.969" y="105.006" width="7.81" height="84.8164" filterUnits="userSpaceOnUse" color-interpolation-filters="sRGB">
<feFlood flood-opacity="0" result="BackgroundImageFix"/>
<feBlend mode="normal" in="SourceGraphic" in2="BackgroundImageFix" result="shape"/>
<feColorMatrix in="SourceAlpha" type="matrix" values="0 0 0 0 0 0 0 0 0 0 0 0 0 0 0 0 0 0 127 0" result="hardAlpha"/>
<feOffset/>
<feGaussianBlur stdDeviation="9.0843"/>
<feComposite in2="hardAlpha" operator="arithmetic" k2="-1" k3="1"/>
<feColorMatrix type="matrix" values="0 0 0 0 1 0 0 0 0 1 0 0 0 0 1 0 0 0 1 0"/>
<feBlend mode="normal" in2="shape" result="effect1_innerShadow_319_6922"/>
</filter>
<filter id="filter6_i_319_6922" x="40.9885" y="17.3027" width="153.818" height="88.8071" filterUnits="userSpaceOnUse" color-interpolation-filters="sRGB">
<feFlood flood-opacity="0" result="BackgroundImageFix"/>
<feBlend mode="normal" in="SourceGraphic" in2="BackgroundImageFix" result="shape"/>
<feColorMatrix in="SourceAlpha" type="matrix" values="0 0 0 0 0 0 0 0 0 0 0 0 0 0 0 0 0 0 127 0" result="hardAlpha"/>
<feOffset/>
<feGaussianBlur stdDeviation="9.0843"/>
<feComposite in2="hardAlpha" operator="arithmetic" k2="-1" k3="1"/>
<feColorMatrix type="matrix" values="0 0 0 0 1 0 0 0 0 1 0 0 0 0 1 0 0 0 1 0"/>
<feBlend mode="normal" in2="shape" result="effect1_innerShadow_319_6922"/>
</filter>
<linearGradient id="paint0_linear_319_6922" x1="194.938" y1="198.491" x2="117.767" y2="198.491" gradientUnits="userSpaceOnUse">
<stop stop-color="#85D3CF"/>
<stop offset="0.998824" stop-color="#85D3CF"/>
<stop offset="1" stop-color="#01A69C"/>
</linearGradient>
<linearGradient id="paint1_linear_319_6922" x1="194.938" y1="198.491" x2="117.767" y2="198.491" gradientUnits="userSpaceOnUse">
<stop stop-color="#85D3CF"/>
<stop offset="0.998824" stop-color="#85D3CF"/>
<stop offset="1" stop-color="#01A69C"/>
</linearGradient>
<linearGradient id="paint2_linear_319_6922" x1="194.938" y1="198.491" x2="117.767" y2="198.491" gradientUnits="userSpaceOnUse">
<stop stop-color="#85D3CF"/>
<stop offset="0.998824" stop-color="#85D3CF"/>
<stop offset="1" stop-color="#01A69C"/>
</linearGradient>
<clipPath id="clip0_319_6922">
<rect width="52.8994" height="52.8994" fill="white" transform="matrix(0.866025 0.5 -0.866025 0.5 118.488 115.367)"/>
</clipPath>
</defs>
</svg>
