<svg width="236" height="222" viewBox="0 0 236 222" fill="none" xmlns="http://www.w3.org/2000/svg">
<path d="M72.2841 201.586C72.0547 201.588 71.8292 201.526 71.6326 201.408L27.7304 176.042C27.5354 175.925 27.3734 175.76 27.2594 175.563C27.1455 175.367 27.0834 175.144 27.079 174.917V126.178C27.079 125.833 27.2163 125.501 27.4606 125.257C27.7049 125.013 28.0363 124.875 28.3818 124.875C28.7274 124.875 29.0588 125.013 29.3031 125.257C29.5475 125.501 29.6847 125.833 29.6847 126.178V174.167L70.9812 197.993V151.544C70.9863 151.2 71.1252 150.872 71.3685 150.629C71.6117 150.385 71.9401 150.246 72.2841 150.241V150.241C72.628 150.246 72.9565 150.385 73.1997 150.629C73.443 150.872 73.5819 151.2 73.587 151.544V200.283C73.5826 200.51 73.5205 200.733 73.4065 200.93C73.2926 201.126 73.1305 201.291 72.9355 201.408C72.7377 201.523 72.5131 201.585 72.2841 201.586V201.586Z" fill="white"/>
<path d="M72.2841 181.944C72.0567 181.951 71.8316 181.896 71.6326 181.786L27.8883 156.538C27.6131 156.354 27.4182 156.073 27.3432 155.75C27.2683 155.428 27.3189 155.089 27.4847 154.802C27.6506 154.516 27.9192 154.303 28.2362 154.208C28.5532 154.112 28.8946 154.141 29.1912 154.288L72.9355 179.556C73.2333 179.729 73.4504 180.013 73.5392 180.346C73.628 180.679 73.5813 181.034 73.4093 181.332C73.2918 181.524 73.1259 181.681 72.9285 181.789C72.731 181.896 72.5088 181.95 72.2841 181.944V181.944Z" fill="white"/>
<path d="M172.288 123.356C172.06 123.365 171.835 123.31 171.636 123.198L127.576 97.7525C127.417 97.6733 127.275 97.5623 127.16 97.4262C127.045 97.2901 126.959 97.1319 126.908 96.9613C126.856 96.7908 126.84 96.6115 126.861 96.4345C126.882 96.2576 126.938 96.0867 127.028 95.9325C127.117 95.7784 127.237 95.6441 127.38 95.5382C127.523 95.4322 127.687 95.3567 127.86 95.3163C128.034 95.276 128.214 95.2716 128.389 95.3036C128.564 95.3356 128.731 95.4031 128.879 95.5021L172.939 121.006C173.192 121.145 173.391 121.364 173.504 121.629C173.617 121.894 173.637 122.189 173.562 122.467C173.487 122.745 173.32 122.99 173.089 123.162C172.858 123.334 172.576 123.423 172.288 123.415V123.356Z" fill="white"/>
<path d="M172.446 143.53C172.219 143.527 171.997 143.473 171.794 143.372L127.754 117.927C127.552 117.818 127.384 117.655 127.269 117.456C127.154 117.258 127.097 117.031 127.102 116.802V67.9446C127.102 67.7745 127.136 67.606 127.202 67.449C127.268 67.292 127.364 67.1497 127.485 67.0303C127.606 66.9109 127.75 66.8168 127.908 66.7535C128.066 66.6902 128.235 66.6589 128.405 66.6615V66.6615C128.746 66.6615 129.072 66.7967 129.313 67.0373C129.553 67.278 129.688 67.6043 129.688 67.9446V116.052L171.143 139.996V93.37C171.143 93.1989 171.176 93.0295 171.242 92.8714C171.307 92.7134 171.403 92.5697 171.524 92.4488C171.645 92.3278 171.789 92.2318 171.947 92.1663C172.105 92.1009 172.275 92.0672 172.446 92.0672V92.0672C172.622 92.0592 172.797 92.0869 172.962 92.1488C173.127 92.2107 173.278 92.3054 173.405 92.4272C173.533 92.549 173.634 92.6953 173.703 92.8574C173.772 93.0194 173.808 93.1938 173.808 93.37V142.247C173.803 142.474 173.741 142.697 173.627 142.893C173.513 143.09 173.351 143.255 173.156 143.372C172.936 143.482 172.692 143.536 172.446 143.53V143.53Z" fill="white"/>
<path d="M72.2444 143.866L72.2641 152.374L173.749 93.4688V84.9805L72.2444 143.866Z" fill="#008981"/>
<path d="M27 117.749L72.2445 143.865L173.749 84.9801L128.563 58.8835L27 117.749Z" fill="#01A69C"/>
<path d="M27 117.749V126.257L72.2643 152.374L72.2445 143.866L27 117.749Z" fill="#017770"/>
<path d="M137.288 183.983C137.29 184.281 137.348 184.575 137.457 184.852C137.707 185.45 137.997 186.03 138.325 186.589C139.137 188.09 140.04 189.54 141.027 190.931L144.212 195.756C144.911 196.91 145.493 198.13 145.949 199.399C146.174 199.881 146.233 200.424 146.118 200.944C146.003 201.265 145.813 201.555 145.563 201.788C144.329 202.899 142.757 203.562 141.1 203.67C140.253 203.887 139.365 203.887 138.518 203.67C137.742 203.25 137.061 202.675 136.516 201.981C135.221 200.467 134.237 198.713 133.621 196.818C133.328 196.159 132.891 195.573 132.342 195.105C131.329 194.212 130.123 193.633 129.471 192.379C129.06 191.653 128.797 190.853 128.698 190.024C128.598 189.196 128.664 188.356 128.892 187.554C129.409 185.781 129.757 183.964 129.93 182.126C129.996 181.462 130.307 180.847 130.802 180.401C131.297 179.955 131.941 179.71 132.608 179.713C133.33 179.641 134.057 179.641 134.779 179.713C135.385 179.698 135.982 179.866 136.492 180.196C136.799 180.511 137.031 180.892 137.169 181.31C137.307 181.728 137.347 182.172 137.288 182.608C137.288 183.163 137.264 183.573 137.288 183.983Z" fill="#85D3CF"/>
<path d="M150.847 176.892C151.619 177.447 152.27 178.098 153.018 178.653C153.766 179.208 154.514 179.666 155.237 180.245C156.83 181.524 158.47 182.658 160.063 183.84C161.368 184.652 162.632 185.53 163.85 186.469C164.801 187.218 165.617 188.124 166.263 189.147C166.436 189.355 166.554 189.604 166.605 189.87C166.655 190.136 166.637 190.41 166.552 190.667C166.371 191.243 166.102 191.789 165.756 192.284C165.209 193.309 164.369 194.149 163.344 194.696C162.304 195.054 161.169 195.011 160.159 194.576C158.56 193.919 157.145 192.884 156.034 191.56C154.991 190.179 153.589 189.111 151.981 188.472C150.615 188.121 149.295 187.611 148.048 186.952C147.548 186.579 147.128 186.109 146.813 185.57C146.498 185.031 146.294 184.435 146.215 183.816C146.046 182.368 146.625 180.945 146.528 179.473C146.528 178.556 147.614 175.275 148.386 175.179C149.26 175.144 150.117 175.427 150.798 175.975L150.847 176.892Z" fill="#85D3CF"/>
<path d="M162.572 121.594C162.572 122.053 162.572 122.535 162.451 122.994C161.823 129.08 160.783 135.118 159.339 141.064C158.736 143.838 158.639 151.003 153.838 149.701C151.944 148.786 150.322 147.392 149.132 145.657C147.943 143.922 147.228 141.906 147.059 139.809C146.866 137.035 147.059 133.102 146.866 130.352C146.576 124.634 149.737 105.696 149.737 105.696C149.737 105.696 160.352 102.029 160.81 103.138C161.537 105.193 161.992 107.335 162.162 109.508C162.696 113.513 162.833 117.562 162.572 121.594V121.594Z" fill="#008981"/>
<path d="M160.328 134.454C159.798 140.703 158.519 146.855 157.409 153.007C156.247 159.371 155.778 165.842 156.01 172.307C156.01 173.803 156.155 175.299 156.203 176.819C156.372 177.699 156.333 178.606 156.091 179.469C155.848 180.332 155.407 181.126 154.804 181.788C153.874 182.315 152.829 182.606 151.761 182.636C150.692 182.665 149.633 182.432 148.676 181.957C147.976 181.716 146.673 181.378 146.263 180.703C145.853 180.027 146.046 178.049 146.118 177.036C146.649 169.581 144.43 162.367 144.647 154.913C144.784 150.219 145.91 145.607 147.952 141.378C148.434 140.317 149.158 139.159 150.364 138.966L160.328 134.454Z" fill="#008981"/>
<path d="M129.303 112.957C129.954 108.639 131.088 103.765 133.525 101.232C133.525 101.232 144.864 108.349 153.911 105.671C154.876 105.382 153.911 106.636 153.525 107.625C152.922 109.869 152.295 112.089 151.691 114.332C150.02 119.224 148.674 124.221 147.662 129.29C146.915 134.646 146.239 140.002 145.25 145.31C144.585 147.716 143.516 149.992 142.089 152.041C140.642 154.453 139.291 155.659 136.951 155.225C135.595 154.818 134.415 153.968 133.597 152.813C133.267 152.082 133.031 151.312 132.898 150.521C132.066 146.665 131.51 142.755 131.233 138.82C130.847 134.67 130.63 130.496 130.292 126.347C129.954 122.197 128.652 117.252 129.303 112.957Z" fill="#01A69C"/>
<path d="M145.226 143.308C145.226 143.308 144.478 146.926 144.381 147.312C143.995 148.591 143.561 149.87 143.078 151.124C142.009 153.636 141.107 156.215 140.376 158.844C139.079 164.767 138.56 170.834 138.832 176.89C138.832 178.217 138.977 179.52 139.098 180.823C139.364 182.315 139.364 183.842 139.098 185.334C138.742 186.273 138.132 187.093 137.334 187.703C136.537 188.313 135.585 188.687 134.586 188.784C133.799 188.988 132.98 189.038 132.174 188.929C130.965 188.862 129.831 188.326 129.013 187.433C128.635 186.817 128.396 186.125 128.314 185.407C127.996 183.218 127.907 181.003 128.048 178.796C128.052 176.82 127.923 174.845 127.662 172.886C127.18 168.494 127.131 164.066 127.517 159.665C128.176 154.698 129.729 149.892 132.101 145.479C132.656 144.442 132.704 145.72 133.887 145.6L145.226 143.308Z" fill="#01A69C"/>
<path d="M129.519 36.6967C128.997 37.8638 128.794 39.1483 128.929 40.4196C129.065 41.691 129.535 42.9037 130.291 43.9344C130.783 44.7318 131.473 45.3885 132.294 45.8403C132.746 46.0748 133.243 46.2072 133.752 46.228C134.261 46.2489 134.768 46.1577 135.237 45.9609C135.657 45.7585 136.026 45.4651 136.318 45.102C136.611 44.7389 136.818 44.3153 136.926 43.862C137.083 42.9924 137.083 42.1019 136.926 41.2323C136.757 39.5435 136.612 37.8306 136.443 36.1177C136.468 35.6999 136.468 35.2809 136.443 34.8631C136.443 34.5495 135.889 34.5013 135.575 34.4289C134.549 34.1361 133.459 34.1566 132.444 34.4876C131.43 34.8186 130.537 35.445 129.881 36.2866C129.75 36.4131 129.628 36.5502 129.519 36.6967Z" fill="#0C1138"/>
<path d="M196.396 53.0787C192.656 54.7675 176.806 65.0209 169.23 64.9002C168.307 64.9235 167.408 64.611 166.698 64.0209C165.988 63.4308 165.516 62.6031 165.37 61.6916C165.081 60.3647 167.783 56.4321 169.013 55.443C177.195 52.1808 185.575 49.4411 194.104 47.2403C195.262 47.2162 197.361 52.6203 196.396 53.0787Z" fill="#01A69C"/>
<path d="M148.12 63.9824C147.153 63.2825 146.374 62.3543 145.852 61.2803C145.508 60.6732 145.3 59.9985 145.241 59.3029C145.183 58.6073 145.276 57.9073 145.515 57.2513C146.214 55.466 149.327 54.3321 149.52 54.308C151.401 54.0185 159.58 54.4528 161.582 54.4528C165.513 54.4087 169.441 54.6668 173.331 55.2248C173.771 55.27 174.207 55.3507 174.634 55.4661C175.811 55.8352 176.802 56.6409 177.403 57.7177C178.004 58.7946 178.17 60.0607 177.867 61.2562C176.974 64.5372 174.393 64.7303 171.401 65.2369C167.557 65.7637 163.677 65.9896 159.797 65.9125C157.437 66.1173 155.064 66.1173 152.704 65.9125C151.255 65.6479 149.866 65.1248 148.603 64.3684L148.12 63.9824Z" fill="#01A69C"/>
<path d="M180.135 56.7217C180.674 56.4035 181.23 56.1137 181.8 55.8532C182.1 55.6996 182.384 55.5135 182.644 55.2983C182.909 55.057 183.054 54.6952 183.295 54.4298C183.409 54.284 183.568 54.1809 183.748 54.1371C183.927 54.0933 184.117 54.1114 184.284 54.1885C184.646 54.4057 184.55 54.9605 184.526 55.3224C184.47 55.6568 184.345 55.9757 184.158 56.2584C183.971 56.541 183.726 56.7811 183.44 56.963C182.901 57.3395 182.408 57.7766 181.968 58.2658C181.031 58.1748 180.117 57.9218 179.266 57.5179C179.514 57.2104 179.807 56.9419 180.135 56.7217V56.7217Z" fill="#F9D5C3"/>
<path d="M181.993 75.8294L208.314 60.6304V18.0005L181.993 33.1996V75.8294Z" fill="#0C1138"/>
<path d="M198.687 38.6999L198.398 38.917C197.133 40.0804 196.343 41.6698 196.178 43.3802C196.13 44.7722 196.446 46.1529 197.095 47.385C198.592 50.4879 199.679 53.7725 200.328 57.1559C200.328 57.6867 200.569 58.338 201.076 58.531C201.32 58.5754 201.572 58.5542 201.805 58.4694C202.038 58.3846 202.244 58.2394 202.403 58.0485C203.763 56.7232 204.845 55.1404 205.587 53.3923C206.487 51.497 206.901 49.4078 206.794 47.3126C206.844 46.0089 206.561 44.7138 205.973 43.5491C205.341 42.432 204.525 41.429 203.561 40.5817C202.887 40.0728 202.25 39.5165 201.655 38.917C201.481 38.6986 201.263 38.5185 201.016 38.3882C200.769 38.2579 200.497 38.1801 200.219 38.1597C199.94 38.1393 199.66 38.1768 199.397 38.2698C199.133 38.3627 198.892 38.5092 198.687 38.6999V38.6999Z" fill="#353858"/>
<path d="M195.189 56.0694C195.045 56.383 194.852 56.6725 194.683 56.962C193.49 59.2673 191.771 61.2592 189.665 62.7763C189.354 63.0164 188.986 63.1715 188.596 63.2265C188.207 63.2815 187.811 63.2345 187.445 63.09C187.07 62.8471 186.769 62.5046 186.577 62.1008C185.99 61.0994 185.605 59.993 185.443 58.8438C185.184 56.3586 185.339 53.8478 185.901 51.4132C186.581 48.5885 187.911 45.9616 189.785 43.7413C190.484 42.8839 191.377 42.2056 192.391 41.763C194.345 41.0633 194.442 43.3552 194.49 44.6821C194.558 47.2211 194.857 49.7486 195.382 52.2335C195.634 53.1355 195.707 54.0777 195.6 55.0079C195.51 55.378 195.372 55.7349 195.189 56.0694Z" fill="#353858"/>
<path d="M196.517 38.0965C196.716 38.8615 197.125 39.5553 197.699 40.0989C198.314 40.6225 198.986 41.0757 199.701 41.45C199.517 41.7055 199.24 41.8787 198.929 41.9325C198.701 41.9366 198.476 41.8782 198.278 41.7636C197.622 41.4498 197.019 41.0345 196.493 40.5332C196.275 40.3643 196.058 40.1472 195.745 40.2437C195.279 40.4881 194.907 40.8778 194.683 41.3534C193.791 42.7286 193.043 44.1762 192.271 45.6237C192.508 44.3818 192.94 43.1851 193.549 42.0772C194.089 41.3307 194.535 40.5204 194.876 39.6647C195.049 38.87 195.162 38.0636 195.214 37.2521C195.358 35.3545 195.069 33.4489 194.37 31.6791C194.256 31.4248 194.175 31.1573 194.128 30.883C194.118 30.7382 194.149 30.5936 194.217 30.4656C194.285 30.3376 194.388 30.2314 194.514 30.1592C194.653 30.11 194.804 30.1044 194.946 30.1432C195.089 30.182 195.216 30.2633 195.31 30.3763C195.508 30.6059 195.648 30.8786 195.721 31.1724C196.278 33.3714 196.538 35.6354 196.493 37.9035C196.493 37.9035 196.517 38 196.517 38.0965Z" fill="#353858"/>
<path d="M126.166 65.5274C126.142 65.913 126.142 66.2997 126.166 66.6853C126.264 67.7859 126.457 68.8757 126.746 69.9423C127.081 71.2028 127.619 72.4005 128.338 73.4888C129.086 74.6468 129.665 75.9013 130.388 77.0111C133.711 81.6889 135.046 87.4915 134.104 93.1511C133.428 96.4321 132.15 99.5685 131.16 102.801C130.562 104.407 130.141 106.074 129.906 107.771C129.906 108.953 131.739 110.184 132.656 110.739C135.172 112.3 137.979 113.335 140.907 113.778C146.159 114.693 151.546 114.479 156.709 113.151C158.688 112.726 160.539 111.842 162.114 110.57C163.199 109.605 162.668 107.433 162.572 106.082C162.419 102.211 161.927 98.3599 161.1 94.5745C160.145 91.3542 160.004 87.9471 160.69 84.6589C162.017 79.8338 164.454 76.0219 162.765 70.8591C162.234 69.2668 161.173 67.7469 160.521 66.1546C159.411 63.5249 159.122 60.5816 157.892 58.0002C156.42 54.9362 153.694 54.2848 150.654 53.8264C148.17 53.6468 145.673 53.8915 143.272 54.5502C140.73 55.1098 138.249 55.9179 135.865 56.9627C133.5 57.8294 131.242 58.9626 129.134 60.3403C128.26 60.9039 127.534 61.6693 127.018 62.572C126.501 63.4747 126.209 64.4883 126.166 65.5274V65.5274Z" fill="#85D3CF"/>
<path d="M126.745 69.0974C126.081 68.121 125.674 66.9923 125.563 65.8164C125.443 65.1286 125.474 64.4231 125.653 63.7483C125.832 63.0735 126.155 62.4456 126.601 61.908C127.855 60.4605 129.399 60.6776 131.088 60.9429H131.643C133.5 61.3797 135.328 61.9276 137.119 62.5835C138.977 63.1867 140.786 63.9104 142.62 64.5618C146.324 65.8568 149.928 67.4211 153.404 69.2421C153.795 69.444 154.174 69.6696 154.538 69.9176C155.52 70.6627 156.179 71.7551 156.381 72.9708C156.583 74.1865 156.312 75.4334 155.624 76.4557C153.694 79.2543 151.185 78.5546 148.217 78.0239C142.137 76.5943 136.182 74.6741 130.412 72.282C129.14 71.5514 128.012 70.5949 127.083 69.4593C126.961 69.3476 126.848 69.2265 126.745 69.0974Z" fill="white"/>
<path d="M174.032 62.897C175.323 62.0241 176.541 61.0478 177.675 59.9778C177.994 59.5507 178.292 59.1078 178.567 58.6509C178.567 58.4579 178.76 58.2649 178.881 58.0719L179.267 57.517C180.117 57.9209 181.032 58.1739 181.969 58.2649C181.875 58.3673 181.794 58.4807 181.728 58.6027C181.907 58.7407 182.115 58.8362 182.337 58.8822C182.558 58.9282 182.787 58.9233 183.006 58.868C184.007 58.6055 184.911 58.0612 185.612 57.2999C186.155 56.7212 186.639 56.091 187.059 55.4181C187.252 55.1044 187.831 54.26 188.314 54.4771C188.796 54.6943 188.435 55.5387 188.314 55.8765C188.193 56.2142 188 56.4554 187.856 56.7449C187.694 57.138 187.557 57.5409 187.445 57.9512C187.445 57.9512 187.445 58.2408 187.445 58.289C187.445 58.3373 188.049 57.8306 188.145 57.7583L189.062 57.0104C189.303 56.8174 189.568 56.5037 189.93 56.552C190.053 56.5648 190.167 56.6161 190.259 56.6985C190.35 56.7809 190.412 56.8901 190.437 57.0104C190.507 57.2874 190.507 57.5776 190.437 57.8547C190.437 58.1683 190.437 58.482 190.437 58.7956L190.148 60.2432C190.148 60.6051 190.148 60.9187 190.148 61.2564C189.853 62.0143 189.378 62.6892 188.764 63.2229C188.151 63.7567 187.417 64.1333 186.625 64.3204C185.794 64.6188 184.938 64.8448 184.068 64.9959C183.392 64.9959 182.717 65.2372 182.041 65.3096H181.438C180.869 65.3688 180.305 65.4655 179.749 65.5991C178.963 65.8707 178.156 66.0804 177.337 66.2263C176.9 66.2933 176.454 66.2561 176.035 66.1177C175.616 65.9794 175.235 65.7438 174.924 65.4302C174.008 64.7546 173.018 63.8138 174.032 62.897Z" fill="#F9D5C3"/>
<path d="M179.17 66.2509C175.455 68.0362 159.87 78.5549 152.198 78.6032C151.282 78.635 150.384 78.3354 149.671 77.7593C148.958 77.1833 148.476 76.3694 148.314 75.4669C147.976 74.1158 150.726 70.1592 151.836 69.1218C159.933 65.725 168.232 62.8324 176.685 60.4608C177.916 60.4125 180.111 65.7925 179.17 66.2509Z" fill="white"/>
<path d="M138.422 55.4426C138.383 55.658 138.383 55.8786 138.422 56.094C138.437 56.704 138.603 57.3008 138.905 57.8311C139.401 58.6127 140.059 59.279 140.835 59.7852C142.197 60.7638 143.714 61.506 145.322 61.9807C146.625 62.3425 148.458 62.8974 149.665 61.9807C149.944 61.7363 150.164 61.4307 150.306 61.0875C150.449 60.7444 150.51 60.373 150.485 60.0024C150.426 59.2403 150.281 58.4875 150.051 57.7587C149.75 56.4789 149.628 55.1636 149.689 53.8504C149.769 52.1287 149.729 50.4035 149.568 48.6875C149.476 47.6536 149.081 46.6698 148.433 45.8589C147.785 45.048 146.913 44.446 145.925 44.1278C144.029 43.4968 142.058 43.1235 140.063 43.0179C139.508 43.0179 137.915 42.8973 137.795 43.7176C137.795 44.1036 138.133 44.5138 138.301 44.8033C138.653 45.2546 138.93 45.7597 139.122 46.2991C139.717 48.0933 139.882 50.0022 139.604 51.8721C139.473 52.7598 139.255 53.6324 138.953 54.4776C138.796 54.8099 138.619 55.1321 138.422 55.4426V55.4426Z" fill="#F4BDA2"/>
<path d="M142.089 50.7138C141.836 50.5808 141.594 50.4275 141.366 50.2554C140.76 49.8553 140.276 49.2961 139.966 48.6391C139.658 48.0306 139.312 47.4423 138.929 46.8779C138.736 46.516 138.446 46.2748 138.229 45.937C136.847 43.8737 136.136 41.4341 136.192 38.9513C136.248 36.4685 137.069 34.0636 138.543 32.0648C139.692 30.676 141.197 29.6242 142.896 29.0211C144.595 28.4179 146.425 28.2859 148.193 28.639C149.126 28.8626 150.032 29.1861 150.895 29.604C151.665 29.9098 152.369 30.3603 152.97 30.9309C153.352 31.3256 153.677 31.7723 153.935 32.2578C154.278 32.7894 154.546 33.3658 154.731 33.9707C155.383 36.3833 154.345 38.7958 154.731 41.2084C154.876 42.3423 155.358 43.3797 155.431 44.5618C155.392 46.3454 155.107 48.115 154.586 49.8212C154.428 50.7083 154.169 51.5745 153.814 52.4027C153.568 52.9956 153.158 53.506 152.632 53.8743C152.124 54.1742 151.523 54.2772 150.943 54.1638C149.541 53.9648 148.17 53.5836 146.866 53.0299C145.908 52.6715 144.973 52.2525 144.068 51.7754C143.32 51.3411 142.693 51.0757 142.089 50.7138Z" fill="#F9D5C3"/>
<path d="M132.342 37.5651C132.342 30.0862 136.395 28.8557 136.395 28.8557C136.395 28.8557 137.481 26.4431 143.633 25.9606C146.681 25.8732 149.642 26.9816 151.884 29.0488C153.414 30.4895 154.459 32.3691 154.876 34.4287C155.093 35.5279 155.093 36.6589 154.876 37.758C154.7 36.8771 154.201 36.0939 153.476 35.5626C152.897 35.1284 151.281 34.4046 150.726 35.1525C150.063 36.0864 149.247 36.902 148.313 37.5651C147.278 38.1905 146.309 38.9179 145.418 39.7364C144.571 40.6537 143.857 41.685 143.295 42.8003C142.936 43.7056 142.394 44.5269 141.703 45.2128C141.293 45.5265 139.29 44.3926 138.591 44.2237C138.494 44.1921 138.39 44.189 138.292 44.2147C138.194 44.2404 138.105 44.2937 138.036 44.3684C137.698 44.8509 139.17 45.5265 139.459 45.6954C139.749 45.8643 139.701 50.3516 139.701 50.3516C139.701 50.3516 132.294 44.9475 132.342 37.5651Z" fill="#22254D"/>
<path d="M155.262 44.1511C155.786 47.3783 155.014 50.6819 153.115 53.343C152.676 53.8614 152.054 54.19 151.378 54.2597C149.736 54.4543 148.072 54.2537 146.523 53.6746C144.975 53.0954 143.587 52.1546 142.476 50.9304C144.526 49.9654 144.285 46.4189 144.285 46.4189C144.285 46.4189 154.249 46.2742 155.262 44.1511Z" fill="#EEF4FC"/>
<path d="M145.153 51.1C143.058 49.9037 141.148 48.4083 139.484 46.6609L138.736 47.2158C139.811 49.0884 141.369 50.6381 143.247 51.7031C143.893 51.5376 144.529 51.3362 145.153 51.1V51.1Z" fill="#EEF4FC"/>
<path d="M145.853 47.168C143.983 45.8744 142.014 44.729 139.966 43.7422L139.652 44.5383C140.038 44.7313 145.201 47.7953 145.201 47.7953L145.853 47.168Z" fill="#EEF4FC"/>
<path d="M138.977 42.8003C137.192 42.8003 136.83 44.9716 138.108 46.6362C138.527 47.1638 139.043 47.6061 139.628 47.939C142.475 49.3142 143.609 47.553 142.572 46.6604C140.135 44.6097 141.245 42.8727 138.977 42.8003Z" fill="#F9D5C3"/>
<path d="M140.039 46.8065C139.821 46.6135 137.626 45.5038 139.098 44.6352C139.187 44.5925 139.285 44.5715 139.384 44.5739C139.483 44.5763 139.58 44.6021 139.667 44.6492C139.754 44.6962 139.829 44.7632 139.885 44.8446C139.941 44.9261 139.977 45.0196 139.99 45.1177C139.979 45.3266 139.979 45.5361 139.99 45.745C140.002 45.8699 140.053 45.988 140.135 46.0828C140.328 46.3723 140.955 46.6376 140.835 47.0719C140.714 47.5061 140.159 46.9272 140.039 46.8065Z" fill="#F4BDA2"/>
<path d="M207.132 45.3568C207.132 45.7186 206.843 46.0322 206.818 46.3941C206.859 46.7146 206.957 47.0251 207.108 47.3109C207.365 48.1295 207.431 48.9961 207.301 49.8441C207.394 49.8853 207.498 49.8958 207.598 49.8741C207.698 49.8524 207.788 49.7997 207.856 49.7235C208.001 49.5835 208.109 49.4093 208.169 49.2169C209.087 47.3131 209.251 45.1326 208.628 43.1131C208.568 42.965 208.475 42.8328 208.355 42.7268C208.236 42.6207 208.093 42.5437 207.939 42.5016C207.785 42.4596 207.623 42.4537 207.467 42.4845C207.31 42.5152 207.162 42.5817 207.036 42.6789C206.167 43.475 207.277 44.3917 207.132 45.3568Z" fill="#F4BDA2"/>
</svg>
