<svg width="64" height="64" viewBox="0 0 64 64" fill="none" xmlns="http://www.w3.org/2000/svg">
<rect width="64" height="64" rx="20" fill="#008981" fill-opacity="0.1"/>
<g clip-path="url(#clip0_23_1235)">
<path fill-rule="evenodd" clip-rule="evenodd" d="M19.5037 32.3055C19.5136 32.7189 19.5436 33.1273 19.5927 33.5298C19.6728 34.1868 19.804 34.8281 19.9821 35.4496C20.0338 35.6302 20.0895 35.8092 20.1491 35.9863C20.2816 36.3805 20.4333 36.7659 20.603 37.1415C21.0359 38.0997 21.5862 38.9935 22.2354 39.8047C22.5392 40.1843 22.8646 40.5457 23.2098 40.8872C23.622 41.295 24.0625 41.6742 24.5279 42.0218C24.9185 42.3135 25.3266 42.5828 25.7505 42.828C25.1739 41.5521 24.7808 40.1756 24.6048 38.732C24.6048 38.7322 24.6048 38.7318 24.6048 38.732C24.2667 38.3608 23.9561 37.9633 23.6764 37.5442C22.6174 35.9575 22 34.0508 22 32C22 26.4772 26.4772 22 32 22C32.0839 22 32.1675 22.001 32.2509 22.0031C33.2024 22.0265 34.1209 22.1829 34.9886 22.4542C35.4741 22.6061 35.9436 22.7939 36.3941 23.0146C36.3938 23.0147 36.3945 23.0146 36.3941 23.0146C37.1337 22.8954 37.8935 22.8333 38.6667 22.8333C39.3376 22.8333 39.9976 22.88 40.6437 22.9702C40.2927 22.6341 39.9221 22.3183 39.5339 22.0247C39.2538 21.8128 38.9645 21.6124 38.6667 21.4243C38.4681 21.2989 38.2658 21.1789 38.0599 21.0645C37.6427 20.8328 37.2109 20.6243 36.7661 20.4407C35.8131 20.0474 34.8009 19.7684 33.7465 19.621C33.3379 19.5639 32.923 19.5265 32.5027 19.5099C32.336 19.5033 32.1684 19.5 32 19.5C31.9827 19.5 31.9654 19.5 31.9481 19.5001C31.2828 19.5028 30.6297 19.5575 29.9928 19.6603C29.5873 19.7258 29.1882 19.8107 28.7968 19.9142C28.6057 19.9647 28.4165 20.0196 28.2292 20.0788C23.2538 21.6511 19.6239 26.2521 19.5031 31.7184C19.501 31.812 19.5 31.9059 19.5 32C19.5 32.1012 19.5012 32.2022 19.5036 32.3028C19.5036 32.3037 19.5037 32.3046 19.5037 32.3055ZM28.322 17.4542C28.8074 17.6061 29.277 17.7939 29.7275 18.0146C29.7278 18.0146 29.7271 18.0147 29.7275 18.0146C30.467 17.8954 31.2268 17.8333 32 17.8333C32.6709 17.8333 33.3309 17.88 33.977 17.9702C33.626 17.6341 33.2555 17.3184 32.8673 17.0247C32.5872 16.8128 32.2978 16.6124 32 16.4243C31.3991 16.0447 30.7637 15.7149 30.0994 15.4407C28.6454 14.8406 27.0534 14.5068 25.3842 14.5001C25.3673 14.5 25.3503 14.5 25.3333 14.5C18.4298 14.5 12.8333 20.0964 12.8333 27C12.8333 27.0127 12.8334 27.0253 12.8334 27.0379C12.8421 29.9758 13.8643 32.6751 15.5687 34.8047C16.2353 35.6376 17.0062 36.3833 17.8616 37.0221C18.2521 37.3136 18.6601 37.5829 19.0838 37.828C18.5072 36.5521 18.1141 35.1756 17.9382 33.732C17.9381 33.7318 17.9382 33.7322 17.9382 33.732C17.6 33.3608 17.2894 32.9633 17.0097 32.5442C15.9507 30.9575 15.3333 29.0508 15.3333 27C15.3333 21.4772 19.8105 17 25.3333 17C25.3962 17 25.459 17.0006 25.5216 17.0017C26.4955 17.0197 27.4352 17.1769 28.322 17.4542ZM29.8765 45.8872C32.1346 48.1208 35.2396 49.5 38.6667 49.5C45.5702 49.5 51.1667 43.9036 51.1667 37C51.1667 32.2952 48.5674 28.1975 44.7266 26.0646C43.4155 25.3364 41.9597 24.8372 40.4132 24.621C40.0046 24.5639 39.5896 24.5265 39.1694 24.5099C39.0026 24.5033 38.835 24.5 38.6667 24.5C38.6494 24.5 38.6321 24.5 38.6148 24.5001C37.9495 24.5028 37.2964 24.5575 36.6595 24.6603C36.2539 24.7258 35.8549 24.8107 35.4634 24.9142C35.2724 24.9647 35.0832 25.0196 34.8959 25.0788C29.9204 26.6511 26.2906 31.2521 26.1698 36.7184C26.1677 36.8121 26.1667 36.9059 26.1667 37C26.1667 37.1021 26.1679 37.204 26.1703 37.3055C26.1802 37.7189 26.2102 38.1273 26.2593 38.5298C26.3395 39.1868 26.4707 39.8281 26.6487 40.4496C26.7005 40.6302 26.7562 40.8092 26.8157 40.9863C26.9483 41.3805 27.1 41.7659 27.2696 42.1415C27.9052 43.548 28.7934 44.8159 29.8765 45.8872ZM38.6667 47C44.1895 47 48.6667 42.5228 48.6667 37C48.6667 31.4772 44.1895 27 38.6667 27C33.1438 27 28.6667 31.4772 28.6667 37C28.6667 42.5228 33.1438 47 38.6667 47Z" fill="#008981"/>
<path fill-rule="evenodd" clip-rule="evenodd" d="M42.3195 39.5784C42.0656 39.9382 41.7583 40.2609 41.4055 40.5343C40.6188 41.144 39.6512 41.4738 38.656 41.4715C37.6607 41.4692 36.6947 41.135 35.9108 40.5217C35.5593 40.2466 35.2534 39.9225 35.0012 39.5616C34.8934 39.4074 34.7954 39.2464 34.7078 39.0797C34.6531 38.9756 34.5867 38.8781 34.5109 38.7898C34.2068 38.4358 33.7513 38.2301 33.294 38.3445C32.7226 38.4875 32.3676 39.0717 32.6006 39.6127C32.6678 39.7686 32.7408 39.9217 32.8196 40.0717C32.9485 40.3169 33.0925 40.5536 33.2509 40.7805C33.6239 41.3148 34.0764 41.7945 34.5965 42.2015C35.7543 43.1073 37.1811 43.601 38.6511 43.6044C40.1211 43.6078 41.5502 43.1206 42.7121 42.2201C43.2341 41.8156 43.6887 41.3379 44.0642 40.8054C44.2236 40.5792 44.3688 40.3431 44.4987 40.0985C44.5782 39.9489 44.652 39.7962 44.7199 39.6405C44.9553 39.1007 44.603 38.5148 44.0323 38.3692C43.5755 38.2527 43.1191 38.4563 42.8134 38.8089C42.7372 38.8968 42.6703 38.994 42.6152 39.0978C42.5268 39.2642 42.428 39.4247 42.3195 39.5784Z" fill="#008981"/>
</g>
<defs>
<clipPath id="clip0_23_1235">
<rect width="40" height="40" fill="white" transform="translate(12 12)"/>
</clipPath>
</defs>
</svg>
