<svg width="28" height="28" viewBox="0 0 28 28" fill="none" xmlns="http://www.w3.org/2000/svg">
<rect width="28" height="28" rx="7" fill="white" fill-opacity="0.1"/>
<path d="M14 21.5C14 21.5 8 18.5525 8 12.5C8 10.9087 8.63204 9.38258 9.75726 8.25737C10.8825 7.13215 12.4087 6.5 14 6.5C15.5913 6.5 17.1173 7.13215 18.2426 8.25737C19.3678 9.38258 20 10.9087 20 12.5C20 18.5525 14 21.5 14 21.5Z" stroke="white" stroke-width="1.5" stroke-linejoin="round"/>
<path d="M14 14.75C15.2426 14.75 16.25 13.7426 16.25 12.5C16.25 11.2574 15.2426 10.25 14 10.25C12.7574 10.25 11.75 11.2574 11.75 12.5C11.75 13.7426 12.7574 14.75 14 14.75Z" stroke="white" stroke-width="1.5" stroke-miterlimit="10"/>
</svg>
