<svg width="64" height="64" viewBox="0 0 64 64" fill="none" xmlns="http://www.w3.org/2000/svg">
<rect width="64" height="64" rx="20" fill="#008981" fill-opacity="0.1"/>
<g clip-path="url(#clip0_23_1203)">
<path fill-rule="evenodd" clip-rule="evenodd" d="M28.7778 17.7496C26.3238 19.5508 24.5516 22.2262 23.92 25.3168C23.8919 25.4542 23.8661 25.5924 23.8425 25.7314H20.3408C17.5794 25.7314 15.3408 27.9699 15.3408 30.7314V39.0829C15.3408 41.8444 17.5794 44.0829 20.3408 44.0829H25.9314V46.9126H28.4314V44.0829H34.0219C36.4504 44.0829 38.4745 42.3516 38.9273 40.0558C38.9292 40.0458 38.9312 40.0358 38.9331 40.0258C39.1622 39.9741 39.389 39.916 39.6132 39.8518C42.699 38.9685 45.2964 36.929 46.9068 34.232C47.8287 32.6882 48.4272 30.9287 48.6085 29.0465C48.6469 28.6473 48.6666 28.2424 48.6666 27.833C48.6666 20.9294 43.0702 15.333 36.1666 15.333C36.1606 15.333 36.1546 15.333 36.1486 15.333C33.3903 15.3369 30.8425 16.2337 28.7778 17.7496ZM44.298 33.6551C44.8462 32.8908 45.2893 32.0459 45.6062 31.1418C45.8761 30.372 46.0544 29.5591 46.1282 28.716C46.1536 28.4251 46.1666 28.1305 46.1666 27.833C46.1666 22.3102 41.6895 17.833 36.1666 17.833C36.1659 17.833 36.1653 17.833 36.1646 17.833C34.2669 17.8334 32.4927 18.3624 30.9812 19.2808C30.6205 19.4999 30.2747 19.7413 29.9458 20.003C30.1134 19.8697 30.2853 19.7417 30.4613 19.6192C29.1317 20.5448 28.0378 21.7849 27.2868 23.2314C26.8823 24.0104 26.5765 24.8493 26.3878 25.7314H28.9644C29.061 25.3997 29.1806 25.0776 29.3201 24.7666L29.3004 24.8091C29.835 23.5969 30.6818 22.553 31.7386 21.7791C32.6968 21.0771 33.8278 20.597 35.0559 20.4147C35.4182 20.3609 35.7891 20.333 36.1666 20.333C40.3088 20.333 43.6666 23.6909 43.6666 27.833C43.6666 27.9926 43.6616 28.1512 43.6518 28.3083C43.6485 28.3601 43.6448 28.4115 43.6405 28.463C43.5435 29.6286 43.1798 30.7192 42.6103 31.673C42.0431 32.6231 41.2718 33.4375 40.3566 34.0552L40.4024 34.0233C39.9723 34.3181 39.51 34.5692 39.0219 34.7704V37.4195C39.9136 37.1542 40.7533 36.768 41.5219 36.2797C42.607 35.5903 43.5502 34.6976 44.298 33.6551ZM36.5219 39.3242L36.4774 39.5572C36.2572 40.7111 35.2386 41.5829 34.0219 41.5829H20.3408C18.9601 41.5829 17.8408 40.4637 17.8408 39.0829V30.7314C17.8408 29.3506 18.9601 28.2314 20.3408 28.2314H34.0219C35.4026 28.2314 36.5219 29.3507 36.5219 30.7314V39.3242ZM41.1392 28.3599C41.1573 28.1868 41.1666 28.0108 41.1666 27.833C41.1666 25.0716 38.928 22.833 36.1666 22.833C35.4694 22.833 34.8055 22.9757 34.2026 23.2335C34.1417 23.2595 34.0815 23.2867 34.0219 23.3151C32.9693 23.8157 32.1193 24.6733 31.6284 25.7314H34.0219C34.2644 25.7314 34.5029 25.7486 34.7362 25.782C36.4264 26.0238 37.8439 27.1109 38.5467 28.6013C38.8515 29.2475 39.0219 29.9695 39.0219 30.7314V31.9381C39.4943 31.6089 39.9073 31.2002 40.2414 30.7314C40.5429 30.3082 40.7802 29.8361 40.9389 29.3292C41.0364 29.018 41.1042 28.6938 41.1392 28.3599C41.1392 28.3599 41.1392 28.3598 41.1392 28.3599Z" fill="#008981"/>
<path d="M15.3408 47.4163C15.3408 46.726 15.9005 46.1663 16.5908 46.1663H43.1332C43.8235 46.1663 44.3832 46.726 44.3832 47.4163C44.3832 48.1067 43.8235 48.6663 43.1332 48.6663H16.5908C15.9005 48.6663 15.3408 48.1067 15.3408 47.4163Z" fill="#008981"/>
<path d="M48.6666 47.4163C48.6666 48.1067 48.107 48.6663 47.4166 48.6663C46.7263 48.6663 46.1666 48.1067 46.1666 47.4163C46.1666 46.726 46.7263 46.1663 47.4166 46.1663C48.107 46.1663 48.6666 46.726 48.6666 47.4163Z" fill="#008981"/>
<path d="M28.4312 38.8507C28.4312 39.541 27.8716 40.1007 27.1812 40.1007C26.4909 40.1007 25.9312 39.541 25.9312 38.8507C25.9312 38.1603 26.4909 37.6007 27.1812 37.6007C27.8716 37.6007 28.4312 38.1603 28.4312 38.8507Z" fill="#008981"/>
<path d="M16.7939 18.1479C16.7939 17.4576 17.3535 16.8979 18.0439 16.8979H23.8772C24.5676 16.8979 25.1272 17.4576 25.1272 18.1479C25.1272 18.8383 24.5676 19.3979 23.8772 19.3979H18.0439C17.3535 19.3979 16.7939 18.8383 16.7939 18.1479Z" fill="#008981"/>
<path d="M16.7939 22.1934C16.7939 21.503 17.3535 20.9434 18.0439 20.9434H20.5439C21.2342 20.9434 21.7939 21.503 21.7939 22.1934C21.7939 22.8837 21.2342 23.4434 20.5439 23.4434H18.0439C17.3535 23.4434 16.7939 22.8837 16.7939 22.1934Z" fill="#008981"/>
<path d="M28.418 35.6487C28.2078 37.0719 26.155 37.0719 25.9448 35.6487L25.3376 31.5378C25.2261 30.7829 25.8111 30.1051 26.5742 30.1051H27.7885C28.5516 30.1051 29.1366 30.7829 29.0251 31.5378L28.418 35.6487Z" fill="#008981"/>
</g>
<defs>
<clipPath id="clip0_23_1203">
<rect width="40" height="40" fill="white" transform="translate(12 12)"/>
</clipPath>
</defs>
</svg>
