<svg width="236" height="222" viewBox="0 0 236 222" fill="none" xmlns="http://www.w3.org/2000/svg">
<path d="M53.6068 184.723L23 167.032L23.0157 171.714L53.6225 189.406L53.6068 184.723Z" fill="#85D3CF"/>
<path d="M141.955 134.021L111.332 116.345L23 167.032L53.6068 184.723L141.955 134.021Z" fill="#EEF4FC"/>
<path d="M53.6068 184.723L53.6225 189.406L141.955 138.703V134.021L53.6068 184.723Z" fill="#01A69C"/>
<path d="M118.685 70.0265L94.1906 55.8857C99.1556 58.7453 102.219 64.8258 102.251 73.4831C102.212 77.5911 101.626 81.6755 100.507 85.6284L125.002 99.7691C126.124 95.8175 126.706 91.7318 126.73 87.6238C126.73 78.9822 123.588 72.886 118.685 70.0265Z" fill="#008981"/>
<path d="M125.002 99.7694L100.507 85.6287C99.0139 90.919 96.8434 95.9941 94.0492 100.728L118.528 114.869C121.334 110.139 123.51 105.063 125.002 99.7694Z" fill="#008981"/>
<path d="M118.528 114.869L94.0492 100.728C89.412 108.957 82.7696 115.881 74.7392 120.855L99.2184 134.996C106.76 130.675 113.563 123.306 118.528 114.869Z" fill="#008981"/>
<path d="M99.2184 134.996L74.7392 120.855C67.0561 125.254 60.1114 125.663 55.0836 122.772L79.5785 136.913C84.5906 139.804 91.551 139.395 99.2184 134.996Z" fill="#01A69C"/>
<path d="M136.251 39.7496L111.756 25.6088C107.404 23.0949 101.371 23.4406 94.7248 27.2586L119.22 41.3993C125.866 37.5814 131.899 37.22 136.251 39.7339V39.7496Z" fill="#EEF4FC"/>
<path d="M54.895 105.708L30.4158 91.5674L30.6201 165.115L55.115 179.256L54.895 105.708Z" fill="#008981"/>
<path d="M119.22 41.3998L94.7248 27.259L54.2823 50.4655L78.7614 64.622L119.22 41.3998Z" fill="#EEF4FC"/>
<path d="M78.7614 64.6217L54.2823 50.481C47.2994 54.788 41.5211 60.7933 37.4862 67.9369L61.9811 82.0776C66.0012 74.9385 71.7631 68.9334 78.73 64.6217H78.7614Z" fill="#EEF4FC"/>
<path d="M62.0125 82.0775L37.5176 67.9368C35.084 72.0411 33.1982 76.4465 31.9085 81.0405L56.4034 95.1812C57.6967 90.5885 59.5823 86.1836 62.0125 82.0775Z" fill="#008981"/>
<path d="M56.3405 95.1813L31.8456 81.0405C30.8584 84.4646 30.3301 88.0045 30.2744 91.5675L54.7693 105.708C54.8083 102.139 55.3369 98.5914 56.3405 95.1656V95.1813Z" fill="#008981"/>
<path d="M119.188 41.415C132.402 33.8261 143.165 39.9224 143.196 55.0215L143.416 128.569L55.0993 179.271L54.895 105.724C54.895 90.6091 65.532 72.2104 78.7614 64.6215L119.188 41.415ZM99.2184 134.995C114.459 126.244 126.777 105.048 126.73 87.6238C126.683 70.1993 114.286 63.1917 99.0455 71.9119C83.805 80.632 71.4711 101.859 71.5182 119.283C71.5654 136.708 83.9778 143.715 99.2184 134.995Z" fill="#85D3CF"/>
<path d="M58.2888 105.708C58.2888 91.7091 68.1873 74.5831 80.4583 67.5441L120.901 44.3219C123.629 42.6292 126.744 41.6612 129.951 41.5095C136.126 41.5095 139.818 46.5687 139.849 55.0375L140.054 126.621L58.4774 173.443L58.2888 105.708ZM111.427 64.8574C106.425 64.994 101.547 66.4464 97.2858 69.0682C80.8511 78.4954 68.0145 100.586 68.0773 119.346C68.0773 133.204 75.4462 142.16 86.7588 142.16C91.7605 142.024 96.6379 140.571 100.9 137.949C117.334 128.522 130.155 106.431 130.108 87.6711C130.077 73.8446 122.739 64.8103 111.427 64.8103V64.8574Z" fill="#EEF4FC"/>
<path d="M121.011 77.2546L117.869 75.4949C122.142 77.9616 124.798 83.2252 124.829 90.6883C124.782 94.2418 124.254 97.7725 123.258 101.184L126.322 102.944C127.309 99.5357 127.837 96.0114 127.893 92.4638C127.893 84.9849 125.206 79.7371 120.932 77.2546H121.011Z" fill="#008981"/>
<path d="M126.463 102.944L123.399 101.184C122.113 105.754 120.238 110.138 117.822 114.225L120.964 116C123.381 111.908 125.256 107.519 126.542 102.944H126.463Z" fill="#008981"/>
<path d="M120.885 116L117.743 114.224C113.74 121.339 107.999 127.322 101.057 131.617L104.121 133.393C111.059 129.094 116.799 123.111 120.807 116H120.885Z" fill="#99C0E8"/>
<path d="M104.199 133.393L101.135 131.617C94.505 135.42 88.5659 135.781 84.1666 133.267L87.2304 135.121C91.5669 137.619 97.5688 137.274 104.199 133.471V133.393Z" fill="#99C0E8"/>
<path d="M129.668 62.4539L126.526 60.6784C119.958 56.8919 110.814 57.4261 100.853 63.1766L103.995 64.9521C114.019 59.1858 123.101 58.6673 129.668 62.4539Z" fill="#85D3CF"/>
<path d="M103.995 64.952L100.853 63.1765C91.017 68.8171 82.1083 78.4485 75.6193 89.4783L78.7617 91.238C85.2507 80.2397 94.1594 70.5926 103.995 64.952Z" fill="#85D3CF"/>
<path d="M78.7617 91.238L75.6193 89.4783C72.0138 95.6688 69.2303 102.303 67.3391 109.212L70.4029 110.972C72.3427 104.054 75.1792 97.42 78.8402 91.238H78.7617Z" fill="#85D3CF"/>
<path d="M70.3244 110.971L67.3391 109.212C65.8616 114.373 65.0951 119.712 65.0609 125.081C65.0609 136.378 69.1145 144.344 75.5878 148.083L78.6517 149.843C72.1784 146.103 68.1561 138.153 68.1247 126.856C68.16 121.482 68.9265 116.138 70.4029 110.971H70.3244Z" fill="#85D3CF"/>
<path d="M103.995 64.9365C84.0723 76.3748 67.9833 104.091 68.0461 126.857C68.109 149.624 84.308 158.784 104.184 147.283C124.059 135.782 140.211 108.144 140.132 85.3935C140.054 62.6426 123.902 53.5139 103.995 64.9365ZM104.199 133.393C92.0697 140.338 82.0455 135.75 80.49 123.275C80.3423 122.134 80.2688 120.984 80.27 119.834C80.2709 118.611 80.3338 117.389 80.4586 116.173C81.9512 101.938 91.9283 85.8805 104.026 78.9358C116.125 71.9912 126.023 76.5162 127.72 88.8815C127.865 90.0756 127.944 91.2767 127.956 92.4795C127.955 93.6447 127.892 94.809 127.767 95.9676C126.369 110.234 116.36 126.402 104.199 133.393Z" fill="#EEF4FC"/>
<path d="M138.734 191.48L138.718 196.177L90.4197 168.273L90.4354 163.575L138.734 191.48Z" fill="#01A69C"/>
<path d="M163.606 185.556V190.269C163.606 192.437 162.176 194.59 159.332 196.224C156.142 197.847 152.613 198.693 149.033 198.693C145.453 198.693 141.925 197.847 138.734 196.224V191.51C141.928 193.13 145.459 193.973 149.041 193.973C152.622 193.973 156.153 193.13 159.348 191.51C162.176 189.861 163.59 187.708 163.606 185.556Z" fill="#99C0E8"/>
<path d="M163.606 185.556V190.269C163.606 192.437 162.176 194.59 159.332 196.224C156.142 197.847 152.613 198.693 149.033 198.693C145.453 198.693 141.925 197.847 138.734 196.224V191.51C141.928 193.13 145.459 193.973 149.041 193.973C152.622 193.973 156.153 193.13 159.348 191.51C162.192 189.861 163.606 187.708 163.622 185.556H163.606Z" fill="#01A69C"/>
<path d="M111.065 151.666L159.301 179.538C165.02 182.854 165.036 188.211 159.301 191.511C156.106 193.13 152.575 193.974 148.994 193.974C145.412 193.974 141.881 193.13 138.687 191.511L90.4355 163.591L111.065 151.666Z" fill="#EEF4FC"/>
<path d="M145.239 167.142L158.342 159.538L143.29 174.668L130.187 182.273L145.239 167.142Z" fill="#008981"/>
<path d="M122.786 154.196L135.89 146.576L158.342 159.538L145.239 167.143L122.786 154.196Z" fill="#99C0E8"/>
<path d="M145.239 167.142L130.187 182.273L107.734 169.326L122.786 154.196L145.239 167.142Z" fill="#01A69C"/>
<path d="M106.87 74.3789L99.0144 78.8882C97.6474 79.6738 96.5476 79.0296 96.5476 77.4742V76.013C96.5949 75.1614 96.8431 74.3331 97.2718 73.5958C97.7005 72.8584 98.2977 72.233 99.0144 71.7707L106.87 67.2614C108.222 66.4758 109.321 67.12 109.321 68.6755V70.1367C109.273 70.9863 109.027 71.8127 108.601 72.5496C108.175 73.2864 107.582 73.913 106.87 74.3789Z" fill="#0C1138"/>
<path d="M80.4898 123.275L76.3733 125.694C75.0063 126.48 73.9222 125.836 73.9222 124.28V122.819C73.9665 121.969 74.2117 121.141 74.6378 120.403C75.0638 119.666 75.6586 119.04 76.3733 118.577L80.4584 116.22C80.3336 117.436 80.2707 118.658 80.2698 119.881C80.2706 121.016 80.3441 122.149 80.4898 123.275Z" fill="#85D3CF"/>
<path d="M134.319 87.9855V89.431C134.273 90.2834 134.028 91.1129 133.602 91.8527C133.176 92.5924 132.582 93.2215 131.868 93.689L127.783 96.03C127.907 94.8715 127.97 93.7072 127.971 92.542C127.959 91.3392 127.881 90.138 127.736 88.9439L131.868 86.5715C133.219 85.7073 134.319 86.4143 134.319 87.9855Z" fill="#85D3CF"/>
<path d="M83.5224 127.171V130.69C83.5882 131.369 83.834 132.019 84.2345 132.571C84.635 133.124 85.1756 133.559 85.8007 133.833V130.408C85.1644 130.123 84.6168 129.673 84.2158 129.103C83.8148 128.533 83.5752 127.866 83.5224 127.171Z" fill="#DAE8FD"/>
<path d="M83.5224 127.171V130.69C83.5881 131.369 83.8339 132.019 84.2344 132.571C84.6349 133.124 85.1756 133.559 85.8006 133.833V130.408C85.1745 130.133 84.6324 129.698 84.2294 129.146C83.8264 128.594 83.577 127.945 83.5067 127.265L83.5224 127.171Z" fill="#DAE8FD"/>
<path d="M213.774 169.986V166.545C213.708 167.24 213.457 167.905 213.049 168.471C212.64 169.037 212.088 169.484 211.449 169.766V173.286C212.099 172.998 212.658 172.538 213.068 171.957C213.477 171.376 213.721 170.695 213.774 169.986Z" fill="#DAE8FD"/>
<path d="M211.449 169.687V173.207C211.941 172.939 212.391 172.6 212.784 172.201V168.682C212.397 169.08 211.952 169.419 211.465 169.687H211.449Z" fill="#85D3CF"/>
<path d="M212.769 168.682V172.202C213.106 171.865 213.373 171.464 213.554 171.023V167.504C213.361 167.942 213.09 168.341 212.753 168.682H212.769Z" fill="#85D3CF"/>
<path d="M213.57 167.503V171.023C213.706 170.694 213.775 170.342 213.774 169.986V166.545C213.767 166.9 213.698 167.251 213.57 167.582V167.503Z" fill="#DAE8FD"/>
<path d="M85.8163 130.345L85.832 133.864L177.323 186.405L177.307 182.886L85.8163 130.345Z" fill="#85D3CF"/>
<path d="M188.447 182.886L188.462 186.406L211.465 173.207L211.449 169.688L188.447 182.886Z" fill="#85D3CF"/>
<path d="M177.323 182.886V186.406C179.052 187.281 180.962 187.737 182.9 187.737C184.838 187.737 186.749 187.281 188.478 186.406V182.886C186.75 183.764 184.839 184.222 182.9 184.222C180.962 184.222 179.051 183.764 177.323 182.886Z" fill="#DAE8FD"/>
<path d="M177.323 182.886V186.406L177.825 186.673V183.154L177.338 182.886H177.323Z" fill="#85D3CF"/>
<path d="M177.794 183.153V186.672C178.39 186.954 179.011 187.18 179.648 187.348V183.828C179.011 183.66 178.39 183.434 177.794 183.153Z" fill="#85D3CF"/>
<path d="M179.648 183.829V187.348C180.339 187.52 181.043 187.636 181.753 187.694V184.174C181.043 184.117 180.339 184.001 179.648 183.829Z" fill="#85D3CF"/>
<path d="M181.753 184.174V187.694C184.019 187.916 186.302 187.491 188.337 186.468V182.949C186.297 183.972 184.009 184.397 181.738 184.174H181.753Z" fill="#85D3CF"/>
<path d="M188.321 182.949V186.469H188.431V182.886H188.337L188.321 182.949Z" fill="#85D3CF"/>
<path d="M85.8477 123.934C82.7053 125.71 82.7053 128.648 85.8477 130.345L177.323 182.886C179.049 183.761 180.957 184.217 182.892 184.217C184.828 184.217 186.736 183.761 188.462 182.886L211.465 169.688C214.607 167.912 214.607 165.053 211.465 163.277L119.99 110.736C118.261 109.868 116.354 109.417 114.42 109.417C112.486 109.417 110.578 109.868 108.85 110.736L85.8477 123.934Z" fill="#EEF4FC"/>
<path d="M85.3292 122.678V126.197C85.3566 126.471 85.4551 126.732 85.615 126.955C85.7749 127.178 85.9906 127.356 86.2405 127.47V123.95C85.9906 123.836 85.7749 123.659 85.615 123.436C85.4551 123.212 85.3566 122.951 85.3292 122.678Z" fill="#22254D"/>
<path d="M85.3292 122.678V126.197C85.3566 126.471 85.4551 126.732 85.615 126.955C85.7749 127.178 85.9906 127.356 86.2405 127.47V123.95C85.9906 123.836 85.7749 123.659 85.615 123.436C85.4551 123.212 85.3566 122.951 85.3292 122.678Z" fill="#008981"/>
<path d="M211.37 167.252V163.733C211.344 164.01 211.244 164.276 211.081 164.503C210.918 164.729 210.698 164.908 210.443 165.021V168.541C210.698 168.427 210.918 168.248 211.081 168.022C211.244 167.796 211.344 167.53 211.37 167.252Z" fill="#008981"/>
<path d="M210.428 164.974V168.493C210.62 168.378 210.8 168.241 210.962 168.085V164.565C210.803 164.725 210.623 164.862 210.428 164.974Z" fill="#008981"/>
<path d="M210.962 164.612V168.116C211.088 167.974 211.193 167.816 211.276 167.645V164.125C211.201 164.3 211.094 164.46 210.962 164.597V164.612Z" fill="#008981"/>
<path d="M211.276 164.141V167.661C211.297 167.526 211.297 167.388 211.276 167.252V163.733C211.297 163.868 211.297 164.006 211.276 164.141Z" fill="#008981"/>
<path d="M86.2562 123.935V127.455L181.863 182.368V178.848L86.2562 123.935Z" fill="#008981"/>
<path d="M186.31 178.847V182.367L210.443 168.524L210.427 165.005L186.31 178.847Z" fill="#008981"/>
<path d="M181.863 178.864V182.383C182.553 182.731 183.314 182.913 184.086 182.913C184.859 182.913 185.62 182.731 186.31 182.383V178.864C185.621 179.216 184.859 179.399 184.086 179.399C183.313 179.399 182.552 179.216 181.863 178.864Z" fill="#008981"/>
<path d="M181.863 178.864V182.383L182.067 182.493V178.974L181.879 178.864H181.863Z" fill="#008981"/>
<path d="M182.036 178.974V182.493C182.274 182.603 182.521 182.693 182.775 182.76V179.241C182.521 179.173 182.274 179.084 182.036 178.974Z" fill="#008981"/>
<path d="M182.79 179.242V182.761C183.064 182.827 183.342 182.869 183.623 182.887V179.367C183.337 179.351 183.053 179.309 182.775 179.242H182.79Z" fill="#008981"/>
<path d="M183.607 179.366V182.886C184.511 182.98 185.422 182.811 186.231 182.399V178.879C185.422 179.291 184.511 179.46 183.607 179.366Z" fill="#008981"/>
<path d="M86.1933 121.39C85.9253 121.48 85.6923 121.652 85.5273 121.882C85.3622 122.112 85.2735 122.387 85.2735 122.67C85.2735 122.953 85.3622 123.229 85.5273 123.458C85.6923 123.688 85.9253 123.86 86.1933 123.951L181.816 178.864C182.502 179.213 183.262 179.395 184.031 179.395C184.801 179.395 185.561 179.213 186.247 178.864L210.428 164.974C211.653 164.267 211.669 163.12 210.428 162.413L114.836 107.547C114.147 107.199 113.385 107.018 112.613 107.018C111.841 107.018 111.079 107.199 110.39 107.547L86.1933 121.39Z" fill="#01A69C"/>
</svg>
