<svg width="28" height="28" viewBox="0 0 28 28" fill="none" xmlns="http://www.w3.org/2000/svg">
<rect width="28" height="28" rx="7" fill="white" fill-opacity="0.1"/>
<path d="M21 17.4446V19.5446C21.0008 19.7395 20.9609 19.9325 20.8828 20.1111C20.8047 20.2897 20.6901 20.4501 20.5465 20.5819C20.4028 20.7137 20.2332 20.814 20.0485 20.8765C19.8639 20.9389 19.6682 20.9621 19.474 20.9446C17.32 20.7105 15.2509 19.9745 13.433 18.7956C11.7417 17.7208 10.3078 16.2869 9.23302 14.5956C8.05001 12.7694 7.31379 10.6903 7.08402 8.52656C7.06653 8.33298 7.08953 8.13789 7.15157 7.95369C7.21361 7.7695 7.31332 7.60024 7.44436 7.45669C7.57539 7.31314 7.73488 7.19845 7.91267 7.11992C8.09046 7.04139 8.28266 7.00074 8.47702 7.00056H10.577C10.9167 6.99721 11.2461 7.11751 11.5037 7.33903C11.7612 7.56055 11.9295 7.86817 11.977 8.20456C12.0657 8.8766 12.23 9.53647 12.467 10.1716C12.5612 10.4221 12.5816 10.6944 12.5258 10.9562C12.4699 11.2179 12.3402 11.4582 12.152 11.6486L11.263 12.5376C12.2595 14.29 13.7105 15.7411 15.463 16.7376L16.352 15.8486C16.5423 15.6604 16.7826 15.5307 17.0444 15.4748C17.3062 15.419 17.5785 15.4394 17.829 15.5336C18.4641 15.7705 19.124 15.9349 19.796 16.0236C20.1361 16.0715 20.4466 16.2428 20.6686 16.5048C20.8906 16.7668 21.0085 17.1013 21 17.4446Z" stroke="white" stroke-width="1.4" stroke-linecap="round" stroke-linejoin="round"/>
</svg>
