<svg width="64" height="64" viewBox="0 0 64 64" fill="none" xmlns="http://www.w3.org/2000/svg">
<rect width="64" height="64" rx="20" fill="#008981" fill-opacity="0.1"/>
<g clip-path="url(#clip0_23_1242)">
<path fill-rule="evenodd" clip-rule="evenodd" d="M40.6166 32.2837C41.1672 31.7331 42.0338 31.7706 42.5468 32.2837C43.08 32.8168 43.08 33.6808 42.5468 34.2139C42.0137 34.7471 41.1497 34.7471 40.6166 34.2139C40.0834 33.6808 40.0834 32.8168 40.6166 32.2837Z" fill="#008981"/>
<path fill-rule="evenodd" clip-rule="evenodd" d="M24.9171 22.0001C24.9171 18.0881 28.0884 14.9167 32.0004 14.9167C35.9124 14.9167 39.0837 18.0881 39.0837 22.0001C39.0837 23.0871 38.8226 24.0954 38.4026 24.9931C38.1101 25.6184 37.366 25.8882 36.7407 25.5956C36.1154 25.3031 35.8456 24.559 36.1382 23.9337C36.4215 23.3281 36.5837 22.6797 36.5837 22.0001C36.5837 19.4688 34.5317 17.4167 32.0004 17.4167C29.4691 17.4167 27.4171 19.4688 27.4171 22.0001C27.4171 22.7973 27.6413 23.5491 28.0253 24.2283C28.365 24.8293 28.1531 25.5919 27.5521 25.9316C26.9511 26.2713 26.1885 26.0595 25.8488 25.4585C25.2795 24.4511 24.9171 23.2795 24.9171 22.0001Z" fill="#008981"/>
<path fill-rule="evenodd" clip-rule="evenodd" d="M17.727 28.871C18.0743 29.4677 17.8721 30.2329 17.2755 30.5802C16.8535 30.8258 16.5833 31.2663 16.5833 31.7632C16.5833 32.5245 17.2003 33.1415 17.9616 33.1415H19.5C20.1903 33.1415 20.75 33.7012 20.75 34.3915C20.75 35.0819 20.1903 35.6415 19.5 35.6415H17.9616C15.8196 35.6415 14.0833 33.9052 14.0833 31.7632C14.0833 30.3201 14.8764 29.0839 16.0178 28.4196C16.6144 28.0723 17.3797 28.2744 17.727 28.871Z" fill="#008981"/>
<path fill-rule="evenodd" clip-rule="evenodd" d="M41.9996 24.083C41.1655 24.083 40.4005 24.3607 39.774 24.8326C38.9897 25.4243 38.0327 25.7497 37.0429 25.7497H29.4996C24.6666 25.7497 20.7496 29.6667 20.7496 34.4997C20.7496 37.0847 21.8763 39.4005 23.6676 41.0076C23.9319 41.2447 24.0829 41.583 24.0829 41.938V45.9463C24.0829 46.176 24.2699 46.363 24.4996 46.363H27.8329C28.0625 46.363 28.2496 46.176 28.2496 45.9463V44.4997C28.2496 43.8093 28.8092 43.2497 29.4996 43.2497H35.3329C36.0233 43.2497 36.5829 43.8093 36.5829 44.4997V46.1663C36.5829 46.396 36.7699 46.583 36.9996 46.583H40.3329C40.5625 46.583 40.7496 46.396 40.7496 46.1663V43.1513C40.7496 42.7062 40.9863 42.2947 41.3711 42.0708C42.6948 41.3009 43.8009 40.1968 44.5658 38.874C44.7892 38.4876 45.2016 38.2497 45.6479 38.2497H47.8329C48.0625 38.2497 48.2496 38.0627 48.2496 37.833V32.7247C48.2496 32.495 48.0625 32.308 47.8329 32.308H46.3762C45.8513 32.308 45.3823 31.9801 45.2022 31.487C44.7142 30.1518 43.8867 28.9724 42.8287 28.0176C42.5661 27.7806 42.4162 27.4434 42.4162 27.0897V24.083H41.9996ZM38.269 22.8364C39.3058 22.0551 40.5939 21.583 41.9996 21.583H43.6662C44.3566 21.583 44.9162 22.1427 44.9162 22.833V26.5522C45.8554 27.4849 46.6429 28.58 47.211 29.808H47.8329C49.4433 29.808 50.7496 31.1143 50.7496 32.7247V37.833C50.7496 39.4434 49.4433 40.7497 47.8329 40.7497H46.3411C45.5221 41.9727 44.4691 43.0237 43.2496 43.8429V46.1663C43.2496 47.7767 41.9433 49.083 40.3329 49.083H36.9996C35.3892 49.083 34.0829 47.7767 34.0829 46.1663V45.7497H30.7496V45.9463C30.7496 47.5567 29.4433 48.863 27.8329 48.863H24.4996C22.8892 48.863 21.5829 47.5567 21.5829 45.9463V42.4767C19.5317 40.4424 18.2496 37.6254 18.2496 34.4997C18.2496 28.286 23.2859 23.2497 29.4996 23.2497H37.0429C37.4831 23.2497 37.9134 23.1046 38.269 22.8364Z" fill="#008981"/>
</g>
<defs>
<clipPath id="clip0_23_1242">
<rect width="40" height="40" fill="white" transform="translate(12 12)"/>
</clipPath>
</defs>
</svg>
