<svg width="64" height="64" viewBox="0 0 64 64" fill="none" xmlns="http://www.w3.org/2000/svg">
<rect width="64" height="64" rx="20" fill="#008981" fill-opacity="0.1"/>
<g clip-path="url(#clip0_23_1216)">
<path d="M30.8092 15.4341C31.4768 15.4341 32.0179 15.9752 32.0179 16.6428V23.5534L41.3901 32.9256C41.8621 33.3976 41.8621 34.1629 41.3901 34.6349C40.9181 35.1069 40.1528 35.1069 39.6807 34.6349L39.0247 33.9788L38.358 35.8036C38.129 36.4306 37.435 36.7532 36.808 36.5241C36.181 36.295 35.8584 35.601 36.0874 34.974L37.0205 32.4199C37.0594 32.3137 37.1115 32.2162 37.1744 32.1286L29.9543 24.9085C29.7122 24.6663 29.5942 24.347 29.6006 24.0296L29.6005 24.02L29.6005 16.6428C29.6005 15.9752 30.1417 15.4341 30.8092 15.4341Z" fill="#008981"/>
<path fill-rule="evenodd" clip-rule="evenodd" d="M33.5634 21.8834C33.5634 20.2725 34.8693 18.9667 36.4801 18.9667H37.658C40.4974 18.9667 42.98 20.8807 43.7024 23.6266L48.2006 40.7255C49.2431 44.6884 46.254 48.5656 42.1563 48.5656L36.4801 48.5656C34.8693 48.5657 33.5634 47.2598 33.5634 45.649V41.7838C33.5634 41.0934 34.1231 40.5338 34.8134 40.5338C35.5038 40.5338 36.0634 41.0934 36.0634 41.7838V45.649C36.0634 45.8791 36.25 46.0656 36.4801 46.0656L42.1563 46.0656C44.6149 46.0656 46.4084 43.7393 45.7828 41.3615L41.2846 24.2626C40.8512 22.6151 39.3617 21.4667 37.658 21.4667H36.4801C36.25 21.4667 36.0634 21.6532 36.0634 21.8834L36.0634 23.2293C36.0634 23.9196 35.5038 24.4793 34.8134 24.4793C34.1231 24.4793 33.5634 23.9196 33.5634 23.2293L33.5634 21.8834Z" fill="#008981"/>
<path d="M17.4432 20.2598C18.0171 19.8761 18.7934 20.0304 19.177 20.6044L20.3227 22.3186C20.7063 22.8925 20.552 23.6688 19.9781 24.0524C19.4041 24.436 18.6278 24.2817 18.2442 23.7078L17.0985 21.9936C16.7149 21.4197 16.8692 20.6434 17.4432 20.2598Z" fill="#008981"/>
<path d="M25.3091 18.6737C25.9995 18.6737 26.5591 19.2333 26.5591 19.9237V21.9855C26.5591 22.6758 25.9995 23.2355 25.3091 23.2355C24.6187 23.2355 24.0591 22.6758 24.0591 21.9855V19.9237C24.0591 19.2333 24.6187 18.6737 25.3091 18.6737Z" fill="#008981"/>
<path d="M16.2864 28.5242C16.0107 29.1571 15.2741 29.4466 14.6412 29.1708L12.751 28.3473C12.1181 28.0715 11.8286 27.3349 12.1044 26.702C12.3801 26.0691 13.1167 25.7796 13.7496 26.0554L15.6398 26.8789C16.2727 27.1547 16.5622 27.8913 16.2864 28.5242Z" fill="#008981"/>
<path fill-rule="evenodd" clip-rule="evenodd" d="M25.2661 26.3631C30.202 26.3631 34.2033 30.3644 34.2033 35.3003C34.2033 40.2362 30.202 44.2375 25.2661 44.2375C23.2579 44.2375 21.4044 43.5751 19.9121 42.4569L16.0948 46.2743C15.5961 46.7729 14.7877 46.7729 14.289 46.2743C13.7904 45.7756 13.7904 44.9671 14.289 44.4685L18.1068 40.6507C16.9902 39.159 16.3289 37.3069 16.3289 35.3003C16.3289 30.3644 20.3303 26.3631 25.2661 26.3631ZM31.6496 35.3003C31.6496 31.7748 28.7916 28.9169 25.2661 28.9169C21.7407 28.9169 18.8827 31.7748 18.8827 35.3003C18.8827 38.8258 21.7407 41.6838 25.2661 41.6838C28.7916 41.6838 31.6496 38.8258 31.6496 35.3003Z" fill="#008981"/>
<path d="M39.7059 43.291C39.7059 43.9814 39.1462 44.541 38.4559 44.541C37.7655 44.541 37.2059 43.9814 37.2059 43.291C37.2059 42.6006 37.7655 42.041 38.4559 42.041C39.1462 42.041 39.7059 42.6006 39.7059 43.291Z" fill="#008981"/>
<path d="M41.7274 39.0344C41.7274 39.7248 41.1677 40.2844 40.4774 40.2844C39.787 40.2844 39.2274 39.7248 39.2274 39.0344C39.2274 38.3441 39.787 37.7844 40.4774 37.7844C41.1677 37.7844 41.7274 38.3441 41.7274 39.0344Z" fill="#008981"/>
<path d="M44.2444 42.041C44.2444 42.7314 43.6848 43.291 42.9944 43.291C42.3041 43.291 41.7444 42.7314 41.7444 42.041C41.7444 41.3506 42.3041 40.791 42.9944 40.791C43.6848 40.791 44.2444 41.3506 44.2444 42.041Z" fill="#008981"/>
<path fill-rule="evenodd" clip-rule="evenodd" d="M27.9018 31.6064C28.4658 32.0045 28.6003 32.7845 28.2022 33.3485L28.1723 33.3908C29.0781 34.0469 29.4984 35.2122 29.1827 36.3172C28.9297 37.2027 28.1345 38.1308 26.9052 38.1378C26.7205 38.1388 26.5042 38.1305 26.2709 38.1023C26.1302 38.6387 25.6421 39.0344 25.0616 39.0344C24.3713 39.0344 23.8116 38.4748 23.8116 37.7844V37.0352L23.2367 36.7739H22.3067C21.6163 36.7739 21.0567 36.2143 21.0567 35.5239C21.0567 34.8335 21.6163 34.2739 22.3067 34.2739H22.9198L23.8923 33.1002C24.3992 32.4885 25.1556 32.2174 25.8822 32.3L26.1598 31.9068C26.5579 31.3428 27.3378 31.2083 27.9018 31.6064Z" fill="#008981"/>
</g>
<defs>
<clipPath id="clip0_23_1216">
<rect width="40" height="40" fill="white" transform="translate(12 12)"/>
</clipPath>
</defs>
</svg>
