<svg width="64" height="64" viewBox="0 0 64 64" fill="none" xmlns="http://www.w3.org/2000/svg">
<rect width="64" height="64" rx="20" fill="#008981" fill-opacity="0.1"/>
<g clip-path="url(#clip0_23_1208)">
<path fill-rule="evenodd" clip-rule="evenodd" d="M26.5271 17.8413C25.1425 17.7814 23.7649 18.0677 22.5189 18.6743C21.2728 19.2809 20.1978 20.1888 19.391 21.3156C18.5842 22.4424 18.0712 23.7526 17.8984 25.1277C17.7256 26.5027 17.8984 27.8991 18.4013 29.1905C18.9041 30.4819 19.7211 31.6276 20.7782 32.5237C21.8354 33.4198 23.0994 34.0381 24.4557 34.3226C25.1313 34.4644 25.5642 35.127 25.4224 35.8026C25.2807 36.4783 24.6181 36.9111 23.9424 36.7694C22.1792 36.3995 20.536 35.5957 19.1617 34.4307C17.7874 33.2658 16.7253 31.7765 16.0716 30.0976C15.4179 28.4188 15.1932 26.6035 15.4179 24.8159C15.6426 23.0283 16.3095 21.325 17.3583 19.8602C18.4071 18.3953 19.8047 17.2152 21.4245 16.4265C23.0444 15.6379 24.8353 15.2657 26.6352 15.3436C28.4352 15.4216 30.1872 15.9472 31.7329 16.8728C33.2785 17.7985 34.5688 19.095 35.4871 20.6451C35.839 21.239 35.6428 22.0057 35.0488 22.3576C34.4549 22.7095 33.6881 22.5133 33.3363 21.9193C32.6299 20.727 31.6373 19.7297 30.4484 19.0176C29.2594 18.3055 27.9117 17.9012 26.5271 17.8413Z" fill="#008981"/>
<path fill-rule="evenodd" clip-rule="evenodd" d="M43.6667 32.8333H32C30.6193 32.8333 29.5 33.9526 29.5 35.3333V43.6666C29.5 45.0473 30.6193 46.1666 32 46.1666H43.6667C45.0474 46.1666 46.1667 45.0473 46.1667 43.6666V35.3333C46.1667 33.9526 45.0474 32.8333 43.6667 32.8333ZM32 30.3333C29.2386 30.3333 27 32.5719 27 35.3333V43.6666C27 46.4281 29.2386 48.6666 32 48.6666H43.6667C46.4281 48.6666 48.6667 46.4281 48.6667 43.6666V35.3333C48.6667 32.5719 46.4281 30.3333 43.6667 30.3333H32Z" fill="#008981"/>
<path fill-rule="evenodd" clip-rule="evenodd" d="M39.0833 26.9939H36.5833V32H39.0833V26.9939Z" fill="#008981"/>
<path d="M40.5852 25.3333C40.5852 26.8531 39.3532 28.0852 37.8333 28.0852C36.3135 28.0852 35.0815 26.8531 35.0815 25.3333C35.0815 23.8135 36.3135 22.5814 37.8333 22.5814C39.3532 22.5814 40.5852 23.8135 40.5852 25.3333Z" fill="#008981"/>
<path fill-rule="evenodd" clip-rule="evenodd" d="M37.746 41.722C37.0604 41.722 36.5097 41.5341 36.0974 41.3261C35.4811 41.0151 34.7294 41.2626 34.4184 41.8789C34.1074 42.4953 34.3549 43.247 34.9712 43.558C35.6489 43.9 36.585 44.222 37.746 44.222C38.9644 44.222 39.9425 43.8672 40.6273 43.5061C41.238 43.1841 41.472 42.428 41.1501 41.8174C40.8281 41.2067 40.072 40.9727 39.4613 41.2947C39.0462 41.5135 38.4676 41.722 37.746 41.722Z" fill="#008981"/>
<path fill-rule="evenodd" clip-rule="evenodd" d="M25.8772 30.0643C25.1916 30.0643 24.641 30.2523 24.2287 30.4603C23.6123 30.7713 22.8606 30.5238 22.5496 29.9074C22.2386 29.2911 22.4861 28.5393 23.1025 28.2283C23.7802 27.8864 24.7162 27.5643 25.8772 27.5643C27.0957 27.5643 28.0737 27.9191 28.7586 28.2803C29.3693 28.6023 29.6033 29.3583 29.2813 29.969C28.9593 30.5797 28.2032 30.8137 27.5926 30.4917C27.1775 30.2728 26.5988 30.0643 25.8772 30.0643Z" fill="#008981"/>
<path fill-rule="evenodd" clip-rule="evenodd" d="M41.0478 35.2918C41.7382 35.2918 42.2978 35.8515 42.2978 36.5418V37.4601C42.2978 38.1505 41.7382 38.7101 41.0478 38.7101C40.3575 38.7101 39.7978 38.1505 39.7978 37.4601V36.5418C39.7978 35.8515 40.3575 35.2918 41.0478 35.2918Z" fill="#008981"/>
<path fill-rule="evenodd" clip-rule="evenodd" d="M29.1791 21.7058C29.8694 21.7058 30.4291 22.2654 30.4291 22.9558V23.8741C30.4291 24.5645 29.8694 25.1241 29.1791 25.1241C28.4887 25.1241 27.9291 24.5645 27.9291 23.8741V22.9558C27.9291 22.2654 28.4887 21.7058 29.1791 21.7058Z" fill="#008981"/>
<path fill-rule="evenodd" clip-rule="evenodd" d="M34.6188 35.2918C35.3092 35.2918 35.8688 35.8515 35.8688 36.5418V37.4601C35.8688 38.1505 35.3092 38.7101 34.6188 38.7101C33.9285 38.7101 33.3688 38.1505 33.3688 37.4601V36.5418C33.3688 35.8515 33.9285 35.2918 34.6188 35.2918Z" fill="#008981"/>
<path fill-rule="evenodd" clip-rule="evenodd" d="M22.7501 21.7058C23.4404 21.7058 24.0001 22.2654 24.0001 22.9558V23.8741C24.0001 24.5645 23.4404 25.1241 22.7501 25.1241C22.0597 25.1241 21.5001 24.5645 21.5001 23.8741V22.9558C21.5001 22.2654 22.0597 21.7058 22.7501 21.7058Z" fill="#008981"/>
</g>
<defs>
<clipPath id="clip0_23_1208">
<rect width="40" height="40" fill="white" transform="translate(12 12)"/>
</clipPath>
</defs>
</svg>
