<svg width="24" height="24" viewBox="0 0 24 24" fill="none" xmlns="http://www.w3.org/2000/svg">
<path d="M19 21C19 21.5523 19.4477 22 20 22C20.5523 22 21 21.5523 21 21H19ZM3 21C3 21.5523 3.44772 22 4 22C4.55228 22 5 21.5523 5 21H3ZM21 21C21 19.1501 19.803 17.6266 18.1869 16.6165C16.5566 15.5975 14.3666 15 12 15V17C14.0517 17 15.8617 17.5218 17.1269 18.3125C18.4061 19.112 19 20.0885 19 21H21ZM12 15C9.63342 15 7.44343 15.5975 5.81315 16.6165C4.19695 17.6266 3 19.1501 3 21H5C5 20.0885 5.59391 19.112 6.87314 18.3125C8.13829 17.5218 9.9483 17 12 17V15ZM12 12C9.79086 12 8 10.2091 8 8H6C6 11.3137 8.68629 14 12 14V12ZM8 8C8 5.79086 9.79086 4 12 4V2C8.68629 2 6 4.68629 6 8H8ZM12 4C14.2091 4 16 5.79086 16 8H18C18 4.68629 15.3137 2 12 2V4ZM16 8C16 10.2091 14.2091 12 12 12V14C15.3137 14 18 11.3137 18 8H16Z" fill="white"/>
</svg>
